<?xml version="1.0" encoding="UTF-8" standalone="no"?>
<!-- Created with Inkscape (http://www.inkscape.org/) -->

<svg
   xmlns:dc="http://purl.org/dc/elements/1.1/"
   xmlns:cc="http://creativecommons.org/ns#"
   xmlns:rdf="http://www.w3.org/1999/02/22-rdf-syntax-ns#"
   xmlns:svg="http://www.w3.org/2000/svg"
   xmlns="http://www.w3.org/2000/svg"
   xmlns:sodipodi="http://sodipodi.sourceforge.net/DTD/sodipodi-0.dtd"
   xmlns:inkscape="http://www.inkscape.org/namespaces/inkscape"
   width="315mm"
   height="260mm"
   viewBox="0 0 315 260"
   version="1.1"
   id="svg8589"
   inkscape:version="0.92.1 r15371"
   sodipodi:docname="keepingincontact.svg">
  <defs
     id="defs8583">
    <radialGradient
       inkscape:collect="always"
       r="145"
       gradientTransform="matrix(1.84,0,0,1.84,-164.56,-424.39)"
       cx="153.67"
       cy="518.46002"
       gradientUnits="userSpaceOnUse"
       id="radialGradient4690">
      <stop
         offset="0"
         style="stop-color:#d5f6ff"
         id="stop4150-9" />
      <stop
         offset=".79233"
         style="stop-color:#00ccff"
         id="stop4156-4" />
      <stop
         offset="1"
         style="stop-color:#004455"
         id="stop4152-6" />
    </radialGradient>
    <radialGradient
       inkscape:collect="always"
       r="145"
       gradientTransform="matrix(0.91998,0,0,0.91998,10.98,115.73)"
       cx="153.67"
       cy="518.46002"
       gradientUnits="userSpaceOnUse"
       id="radialGradient4692">
      <stop
         offset="0"
         style="stop-color:#adcfad"
         id="stop4519" />
      <stop
         offset=".79233"
         style="stop-color:#00cf00"
         id="stop4521" />
      <stop
         offset="1"
         style="stop-color:#004400"
         id="stop4523" />
    </radialGradient>
    <linearGradient
       inkscape:collect="always"
       x1="185"
       y1="458.66"
       x2="185"
       gradientUnits="userSpaceOnUse"
       y2="701.41998"
       id="linearGradient4694"
       gradientTransform="matrix(0.56111,0,0,0.63107,92.903758,281.18959)">
      <stop
         offset="0"
         style="stop-color:#ffffff"
         id="stop4616" />
      <stop
         offset="1"
         style="stop-color:#ffffff;stop-opacity:0"
         id="stop4618" />
    </linearGradient>
    <filter
       inkscape:collect="always"
       style="color-interpolation-filters:sRGB"
       id="filter9189"
       x="-0.17483589"
       width="1.3496718"
       y="-0.27166665"
       height="1.5433333">
      <feGaussianBlur
         inkscape:collect="always"
         stdDeviation="7.3576626"
         id="feGaussianBlur9191" />
    </filter>
  </defs>
  <sodipodi:namedview
     id="base"
     pagecolor="#ffffff"
     bordercolor="#666666"
     borderopacity="1.0"
     inkscape:pageopacity="0.0"
     inkscape:pageshadow="2"
     inkscape:zoom="0.315"
     inkscape:cx="177.1312"
     inkscape:cy="360.85221"
     inkscape:document-units="mm"
     inkscape:current-layer="layer1-2"
     showgrid="false"
     inkscape:snap-global="false"
     fit-margin-top="0"
     fit-margin-left="0"
     fit-margin-right="0"
     fit-margin-bottom="0"
     inkscape:window-width="1366"
     inkscape:window-height="706"
     inkscape:window-x="-8"
     inkscape:window-y="-8"
     inkscape:window-maximized="1" />
  <metadata
     id="metadata8586">
    <rdf:RDF>
      <cc:Work
         rdf:about="">
        <dc:format>image/svg+xml</dc:format>
        <dc:type
           rdf:resource="http://purl.org/dc/dcmitype/StillImage" />
        <dc:title></dc:title>
      </cc:Work>
    </rdf:RDF>
  </metadata>
  <g
     inkscape:label="Layer 1"
     inkscape:groupmode="layer"
     id="layer1"
     transform="translate(-225.53599,137.87408)">
    <g
       transform="matrix(0.59634927,0,0,0.58746519,-67.661228,-332.52319)"
       inkscape:label="Layer 1"
       id="layer1-2">
      <g
         id="g4682"
         transform="matrix(1.204207,0,0,1.2647665,528.36516,-180.8533)">
        <circle
           transform="matrix(0.51463,0,0,0.51463,87.311,327.33)"
           style="color:#000000;fill:url(#radialGradient4690);fill-rule:evenodd;stroke:#276d6d;stroke-width:4.28424215;stroke-linecap:round;stroke-linejoin:bevel;stroke-miterlimit:4;stroke-dasharray:none;stroke-opacity:1"
           id="path3924"
           cx="193"
           cy="638.36218"
           r="145" />
        <path
           inkscape:connector-curvature="0"
           style="color:#000000;fill:url(#radialGradient4692);fill-rule:evenodd;stroke:#005500;stroke-width:1.68950152;stroke-linecap:round;stroke-linejoin:bevel;stroke-miterlimit:4;stroke-dasharray:none"
           d="m 186.26,581.61 c -2.9982,0 -5.9538,0.1713 -8.8594,0.51563 l 0.82812,0.10937 c 0,0 1.7306,0.76107 2.0156,1.0469 0.29144,0.28822 0.20757,1.16 0.10937,1.6406 -0.0998,0.48146 -0.38158,0.57899 -0.76562,1.1562 -0.38646,0.57888 0.76562,0.28125 0.76562,0.28125 l 1.3438,0.67188 c 0,0 -0.38907,0.01 -0.96875,0.10937 -0.5797,0.0958 -1.3438,0.28125 -1.3438,0.28125 l -0.0937,1.0625 1.9219,-0.39062 -0.1875,0.67187 -1.3438,0.29688 -1.3594,1.625 -0.0937,3.0781 0.29688,2.6094 0.76562,2.1094 1.25,0.20313 1.4375,0.85937 1.9375,-0.0937 1.9219,-2.5938 2.0156,-1.9375 0.57813,-1.0469 0.96875,-0.57813 2.1094,-0.48437 2.6875,-0.57813 c 0,0 2.5046,-1.6357 2.7969,-1.8281 0.28582,-0.1916 7.2188,-2.3125 7.2188,-2.3125 l 1.5312,0.0937 c 0,0 0.39763,-1.917 0.10937,-2.1094 -0.29224,-0.1916 1.1406,-1.3438 1.1406,-1.3438 0,0 0.20951,-0.099 0.26562,-0.125 -6.662,-1.9541 -13.706,-3 -21,-3 z m -22.266,3.375 c -3.6001,1.1259 -7.0797,2.5217 -10.422,4.1562 l -0.10937,0.25 -1.0625,0.57813 -1.2969,0.96875 -1.1094,0.42187 -0.0781,-0.29687 c -3.6821,2.062 -7.1754,4.4272 -10.438,7.0625 1.6554,-0.8244 4.5,-2.2812 4.5,-2.2812 l 0.67188,-0.71875 1.1094,-0.10938 2.4062,-1.0938 1.8281,-1.25 0.1875,0.0937 -1.3906,1.2969 -0.375,0.48437 -1.1094,0.53125 1,0.14063 -0.14063,0.57812 1.1094,-0.20312 1.1094,-0.90625 0.85938,0.29687 0.39062,0.42188 1.2031,-0.0469 -0.0469,-0.90625 -1.875,-1.3594 -0.4375,-0.42188 -0.1875,-0.48437 0.8125,0.0937 0.67188,0.57812 0.71875,-0.71875 1.4531,-0.1875 1.4375,-1.0156 -0.0937,-0.625 1.1094,-1.0625 -0.73438,-0.76563 1.9375,-0.0469 1.6719,0.0469 c 0,0 0.82383,-0.38046 0.96875,-0.14062 0.145,0.23994 1.3906,1.1562 1.3906,1.1562 l -0.48437,0.42187 -1.9688,0.25 -0.48438,0.95313 1.4531,0.20312 1.0938,-1.1562 1.2031,-0.0937 0.20313,1.1406 c 0,0 -1.3553,0.78063 -1.5469,0.82812 -0.1924,0.0516 -1,0.42188 -1,0.42188 l -0.0625,0.875 -1.2969,0.14062 -1.3438,-0.23437 -0.625,0.0469 -1.0156,0.8125 0.82813,0.71875 c 0,0 1.199,-0.4817 1.3906,-0.625 0.1916,-0.1432 0.82545,-0.42986 0.96875,-0.1875 0.1442,0.23992 0.95313,0.90625 0.95313,0.90625 l 0.67187,1.3125 0.625,0.1875 1.9219,0.625 c 0,0 1.3594,0.3433 1.3594,0.4375 0,0.0966 -0.14062,-0.82812 -0.14062,-0.82812 l -1.0156,-1.2031 c 0,0 -0.0514,-0.32779 0.28125,-0.23437 0.34058,0.0958 1.1562,0.8125 1.1562,0.8125 0.1416,0.0482 1.1094,0.625 1.1094,0.625 l 0.39062,-1.0469 0.85938,-0.53125 -0.32813,-0.625 -0.48437,-0.53125 -0.53125,-0.625 0.0469,-0.71875 c 0,0 0.13723,-0.11052 0.28125,-0.20312 0.1434,-0.095 0.59008,-0.42358 0.6875,-0.23438 0.0942,0.1924 1.0469,1.4375 1.0469,1.4375 l 0.92187,0.20313 0.42188,-0.73438 c 0,0 1.2031,-0.14295 1.2031,-0.0937 0,0.0484 0.0937,-0.57812 0.0937,-0.57812 l 1.1094,-0.28125 -1.5781,-1.4062 -0.875,-0.42188 -0.67187,0.1875 -0.625,-0.71875 0.67187,-0.625 0.29688,-0.875 -0.76563,-0.76562 -1.2031,-0.23438 -0.29688,-0.625 c 0,0 -1.0113,-0.14127 -1.1562,-0.0469 -0.1458,0.0998 -0.85937,-0.875 -0.85937,-0.875 l -0.53125,-0.70313 z m 39.547,7.1562 -1.7344,0.96875 c 0,0 0.86803,0.3709 1.1562,0.5625 0.28824,0.1924 0.85937,-0.1875 0.85937,-0.1875 v 0.875 c 0,0 1.5386,0.84997 1.3438,1.1406 -0.1908,0.28742 2.5156,-0.28125 2.5156,-0.28125 l 2.6875,-0.875 0.57812,-1.0469 -1.0625,-0.875 -4.9062,0.57813 -1.4375,-0.85938 z m 25.969,3.2969 c -0.43352,0.13829 -0.89062,0.29687 -0.89062,0.29687 l -1.2812,1.2188 c 0,0 -0.32623,0.60541 -0.39063,0.76563 -0.0668,0.1618 0.0937,1.8594 0.0937,1.8594 0,0 0.77232,0.0106 0.54688,0.23438 -0.22542,0.22304 -0.1875,1.25 -0.1875,1.25 l 0.89062,0.59375 c 0,0 1.1943,0.39317 1.3594,0.35937 0.1538,-0.0314 0.72992,-0.41997 0.82812,-0.48437 0.0894,-0.0628 0.79179,-0.76336 1.0156,-0.73438 0.2238,0.0354 0.80822,-0.60366 0.875,-0.375 0.0628,0.22462 0.18604,1.0263 0.3125,1.2188 0.128,0.1924 0.58961,0.53754 0.78125,0.98438 0.1908,0.45006 0.44266,0.90822 0.375,1 -0.0668,0.0998 -0.51563,0.53125 -0.51563,0.53125 0,0 -0.9477,0.13276 -1.0781,0.26562 -0.1272,0.1264 -0.29401,0.1886 -0.39063,0.125 -0.099,-0.0644 0.32528,-0.51744 0.42188,-0.64062 0.0974,-0.1312 -0.23056,-0.64078 -0.35938,-0.60938 -0.1304,0.0338 -0.24982,-0.2792 -0.125,-0.375 0.1304,-0.0966 0.0937,-0.71875 0.0937,-0.71875 0,0 -0.18623,-0.0963 -0.28125,-0.0625 -0.0966,0.0322 -1.2188,0.48438 -1.2188,0.48438 0,0 -0.60842,0.6384 -0.64062,0.76562 -0.0346,0.132 -0.30489,0.80221 -0.14063,1.2812 0.1594,0.48388 0.54688,1.2656 0.54688,1.2656 0,0 0.42262,0.27661 0.26562,0.40625 -0.1578,0.1272 -0.48437,0.60937 -0.48437,0.60937 l -0.76563,0.0312 c 0,0 -1.3851,0.17314 -1.5156,0.23438 -0.1264,0.066 -1.4666,0.47895 -1.4062,0.60937 0.0678,0.128 -0.29688,1.5 -0.29688,1.5 -0.062,0.0322 -1.4031,1 -1.5625,1 -0.1602,0 -1.1562,0.25 -1.1562,0.25 0,0 -0.45383,1.1902 -0.48437,1.125 -0.032,-0.0652 -1.5,0.70313 -1.5,0.70313 0,0 -1.124,-0.32351 -1.1562,-0.45313 -0.0318,-0.1272 -0.42251,-0.40912 -0.45313,-0.3125 -0.0336,0.0974 0.39063,1.0888 0.39063,1.2812 0,0.1876 0.0663,0.57873 -0.0625,0.45313 -0.1288,-0.1312 -0.77901,-0.32541 -0.90625,-0.39063 -0.1312,-0.0628 -1.2188,-0.0312 -1.2188,-0.0312 h -0.45313 c 0,0 -0.54592,0.48805 -0.57812,0.39063 -0.0244,0.0682 -0.0625,0.40625 -0.0625,0.40625 l 0.32812,0.32812 1.1562,0.48438 1.0938,0.67187 0.40625,1.0156 0.48438,0.96875 c 0,0 -0.31544,1.9791 -0.375,2.0781 -0.071,0.0942 -0.75,0.54688 -0.75,0.54688 l -2.0781,-0.0312 c 0,0 -1.0292,-0.2178 -1.125,-0.25 -0.0958,-0.034 -1.5499,0.1905 -1.5781,0.0625 -0.0318,-0.1296 -0.48438,-0.0937 -0.48438,-0.0937 l -0.21875,-0.26563 h -0.57812 l -0.48438,0.54688 -0.70312,0.0312 v 0.57812 c 0,0 0.29782,1.3146 0.26562,1.2188 -0.0318,-0.099 -0.14062,1.5469 -0.14062,1.5469 0,0 -0.67992,1.3937 -0.75,1.5 0.016,0.0418 -0.0469,0.9375 -0.0469,0.9375 l 0.42188,0.67187 0.0625,0.79688 c 0,0 -0.31634,0.73547 -0.1875,0.67187 0.1296,-0.0652 1.1437,0.0335 1.1719,-0.0937 0.032,-0.1272 0.65658,-0.41054 0.75,-0.1875 0.095,0.22382 0.447,-0.0131 0.54688,0.375 0.0892,0.38402 0.44975,0.93623 0.48437,1.0312 0.0314,0.0998 0.28125,0.1875 0.28125,0.1875 l 0.0937,0.26563 -0.1875,0.15625 -0.79687,1.7969 -1.7812,1.25 -1.0469,0.67188 -0.29687,0.79687 -0.4375,0.51563 -0.14063,1 c 0,0 0.1293,1.2465 0.0625,1.3125 -0.062,0.0636 -2.3906,2.2812 -2.3906,2.2812 l -1.2969,0.28125 -0.70312,1.2188 c 0,0 -0.95365,0.89826 -1.0156,1.0625 -0.0668,0.1578 -0.54687,0.76562 -0.54687,0.76562 0,0 0.0322,1.2846 0,1.0938 -0.033,-0.1924 -1.3906,1.0625 -1.3906,1.0625 0,0 -0.2489,1.4652 -0.3125,1.5312 -0.0636,0.0612 -0.69783,1.1884 -0.79687,1.1562 -0.0958,-0.033 -0.20313,0.77743 -0.20313,0.90625 0,0.1272 0.32813,0.5 0.32813,0.5 0,0 0.45377,0.87787 0.48437,0.78125 0.0164,0.0432 0.0312,0.28125 0.0312,0.28125 l -0.45312,0.45313 c 0,0 0.48437,0.73232 0.48437,0.82812 v 1.9844 l -0.51562,1.0938 -0.26563,1.4219 -0.76562,0.60938 0.0312,0.375 0.67187,0.54687 0.10938,0.60938 -0.20313,0.67187 v 0.67188 l 0.48438,1.125 c 0,0 0.4823,0.39349 0.57812,0.29687 0.0958,-0.0966 1.0571,0.60511 1.1875,0.82813 0.1288,0.22464 1.3125,1.6371 1.3125,1.7031 0,0.0628 0.1875,0.375 0.1875,0.375 l 0.57813,1.9688 c 0,0 2.795,2.2981 2.8594,2.2031 0.0644,-0.0934 2.9844,2.0938 2.9844,2.0938 0,0 2.3439,-1.1599 2.3125,-1.0625 -0.0346,0.0942 1.9844,-0.0937 1.9844,-0.0937 l 1.2188,0.1875 0.89063,0.42187 3.2812,-1.5 0.64062,-0.5 2.5312,-0.0937 1.2188,0.48438 c 0,0 0.79688,1.1826 0.79688,1.375 0,0.1924 0.48163,1.0663 0.54687,0.9375 0.062,-0.1248 2.8549,-0.24935 2.9531,-0.21875 0.0926,0.0314 1.3125,1.2188 1.3125,1.2188 l -0.0625,1.125 -0.1875,1.9844 -0.39063,0.95313 -0.375,0.875 -0.10937,0.60937 c 0,0 2.8906,4.2342 2.8906,4.2656 0,0.0314 0.73438,1.7656 0.73438,1.7656 l 0.875,2.2031 0.51562,1.25 -0.51562,0.70312 0.82812,2.1562 -0.28125,2.1094 -1.25,2.7344 -0.54687,2.0156 0.15625,2.7031 1.5,3.1094 1.5781,3.5625 0.15625,3.9062 0.71875,1.3438 c 14.306,-13.576 23.219,-32.768 23.219,-54.047 0,-3.582 -0.26126,-7.1154 -0.75,-10.562 l -1.0625,-1.9375 c 0,0 -1.2149,-3.0116 -1.3438,-3.1719 -0.1256,-0.1594 -0.61172,-0.9689 -0.45312,-0.9375 0.1602,0.033 1.3125,-0.125 1.3125,-0.125 0,0 0.33873,0.40837 0.54687,0.65625 -0.41361,-1.8802 -0.8848,-3.7385 -1.4375,-5.5625 -0.0694,0.15248 -0.15013,0.29875 -0.29687,0.39062 -0.38404,0.24234 -0.95952,0.56805 -1.2969,0.32813 -0.3341,-0.24154 -1.6956,-0.18883 -1.8438,-0.14063 -0.1426,0.0484 -1.7747,-0.053 -1.9688,0.28125 -0.1916,0.33816 -1.4261,0.0982 -1.625,0 -0.1916,-0.095 -2.5584,-1.0478 -2.75,-1.0938 -0.1916,-0.0474 -1.3997,-0.57465 -1.5938,-0.71875 -0.1916,-0.1458 -1.3908,-0.29422 -1.4375,-0.4375 -0.049,-0.145 0.10205,-0.34517 -0.0937,-0.29687 -0.1884,0.0444 -1.5896,0.4841 -1.7812,0.625 -0.1956,0.1498 -0.625,0.53125 -0.625,0.53125 0,0 -0.57953,0.58326 -0.53125,1.0156 0.0516,0.43314 0.58221,0.77571 0.39063,1.0156 -0.1916,0.23992 -0.85938,0.51562 -0.85938,0.51562 0,0 -0.73207,-0.66982 -0.96875,-0.76562 -0.24074,-0.0966 -2.5,-0.4375 -2.5,-0.4375 l -0.92187,-1.0469 c 0,0 -1.4332,-0.96732 -1.5781,-1.0156 -0.1458,-0.0476 -1.7413,0.004 -1.9844,-0.1875 -0.24158,-0.1956 -1.0074,-1.2054 -1.3906,-1.1562 -0.38568,0.0476 -0.23791,-0.57606 -0.0937,-0.67188 0.1434,-0.0958 0.57869,-0.91838 0.53125,-1.0625 -0.05,-0.1458 0.24553,-0.96318 -0.23437,-1.2031 -0.4806,-0.24636 -0.15625,-1.0625 -0.15625,-1.0625 0,0 0.48933,-0.0937 0.29687,-0.0937 -0.1924,0 -0.91537,0.0525 -1.1094,-0.1875 -0.1892,-0.24074 -0.2507,-0.345 -0.4375,-0.25 -0.1964,0.0974 -1.3887,0.2983 -1.5312,0.25 -0.1458,-0.0474 -1.3076,0.0937 -1.5,0.0937 -0.1916,0 0.0525,0.049 -0.1875,0 -0.24394,-0.0482 -1.2033,0.38892 -1.25,0.57812 -0.044,0.1924 -1.0105,-0.0442 -1.1562,0 -0.1466,0.0484 -1.5469,0.0469 -1.5469,0.0469 l -2.2969,0.39062 c 0,0 -1.5462,0.77571 -1.5938,1.0156 -0.0484,0.24076 -0.52858,0.62537 -0.67188,0.71875 -0.1426,0.0974 -1.0094,-0.0128 -1.0625,-0.15625 -0.045,-0.144 -1.5938,0.0625 -1.5938,0.0625 0,0 -0.6201,-0.34887 -0.8125,-0.20313 -0.1916,0.1442 -0.1875,-0.625 -0.1875,-0.625 l 0.23438,-0.57812 0.875,-0.57813 2.0625,-0.375 1.0156,-0.67187 0.625,-0.25 0.375,-1 c 0,0 0.72016,-0.15024 0.67188,-0.29688 -0.0474,-0.1442 -0.23438,-0.8125 -0.23438,-0.8125 l 1.3906,-2.1719 1.9844,-0.95313 0.32813,-0.6875 c 0,0 -0.18868,-0.85346 -0.0469,-1 0.1434,-0.145 1.4375,-0.4375 1.4375,-0.4375 l 1.6406,0.53125 c 0,0 0.87086,-0.57525 1.0625,-0.67187 0.1916,-0.0974 1.1094,-0.625 1.1094,-0.625 0,0 0.088,-0.43815 0.28125,-0.39063 0.1924,0.0474 1.0112,-0.13492 1.1094,0.25 0.0958,0.38484 0.8125,1.5781 0.8125,1.5781 l 1.1094,1.1562 1.0625,0.82812 1.2969,0.46875 c 0,0 0.76295,0.67043 0.90625,0.71875 0.1442,0.0466 0.875,0.875 0.875,0.875 l 0.375,0.67188 c 0,0 -0.22942,0.5241 -0.42188,0.76562 -0.1916,0.23752 -0.77693,0.86404 -0.92187,0.8125 -0.145,-0.0442 -1.25,-0.23437 -1.25,-0.23437 l -1.2031,0.14062 c 0,0 -0.19517,0.29131 0.14063,0.53125 0.33652,0.23992 0.72756,0.19899 1.0625,0.39063 0.34216,0.1916 1.2031,0.57812 1.2031,0.57812 0,0 0.57813,0.0911 0.57813,0.23438 0,0.145 0.18902,-0.38301 0.14062,-0.71875 -0.0472,-0.33574 -0.0873,-0.76196 0.25,-0.85938 0.33894,-0.0958 0.85938,-0.0104 0.85938,-0.15625 0,-0.1432 0.15625,-0.32812 0.15625,-0.32812 l 0.42187,-0.53125 -0.0469,-0.32813 0.4375,-0.34375 c 0,0 -0.24184,-0.28731 -0.4375,-0.53125 -0.19,-0.24154 -0.38928,-0.38426 -0.25,-0.625 0.1474,-0.23912 0.6294,-0.58386 0.875,-0.39062 0.23908,0.1916 0.97021,0.28891 0.92187,0.53125 -0.0458,0.23832 -0.004,0.57982 0.0937,0.39062 0.0924,-0.194 0.0469,-0.96875 0.0469,-0.96875 0,0 -0.38145,-0.5298 -0.71875,-0.57812 -0.33334,-0.0498 -1.2148,-0.48231 -1.4531,-0.57813 -0.2391,-0.0966 -0.67187,-0.32812 -0.67187,-0.32812 0,0 0.19045,-0.53268 -0.0937,-0.48438 -0.29144,0.0474 -1.1562,-0.0927 -1.1562,-0.23437 0,-0.1474 -0.86199,-0.82787 -0.90625,-0.96875 -0.0484,-0.1474 -0.82813,-1.2031 -0.82813,-1.2031 0,0 -0.42289,-0.43402 -0.46875,-0.57812 -0.05,-0.145 -0.10652,-0.38241 -0.20312,-0.76563 -0.099,-0.38486 0.96937,-1.3464 0.92187,-1.2031 -0.049,0.1418 0.24266,0.33328 0.4375,0.76562 0.1892,0.43478 0.95026,1.1649 1.0469,1.4531 0.095,0.28742 1.1539,1.0941 1.3906,1.1875 0.24476,0.095 0.39192,0.3865 0.875,0.57812 0.48308,0.1932 0.43854,0.28749 1.0625,0.57813 0.62236,0.28906 0.71992,0.39035 0.8125,0.53125 0.0998,0.1466 0.47768,0.10381 0.625,0.34375 0.1434,0.23912 0.34375,0.29133 0.34375,0.53125 0,0.23912 0.19515,0.23729 0.0937,0.71875 -0.0942,0.48066 -0.2366,0.62295 -0.1875,0.71875 0.0484,0.0982 0.91266,1.875 1.25,1.875 0.33578,0 1.3316,0.39391 1.1875,0.96875 -0.1434,0.57646 0.625,1.3438 0.625,1.3438 0,0 0.64937,0.0352 1.0938,0.10937 0.018,-0.33572 -0.0523,-0.87442 0.3125,-1.0781 0.4283,-0.24072 1.0506,-0.48125 0.95313,-0.71875 -0.0982,-0.23992 -0.19489,-0.66651 -0.57813,-0.95313 -0.38002,-0.28742 -0.76359,-0.44605 -0.85937,-0.92187 -0.0942,-0.48224 -0.24484,-1.1159 0.1875,-0.92188 0.43234,0.1908 0.81914,1.114 1.0156,0.48438 0.1892,-0.62396 0.66428,-1.0512 1,-0.90625 0.3406,0.144 0.97022,0.3857 0.92188,0.57812 -0.049,0.1924 0.4375,1.7344 0.4375,1.7344 0,0 0.18543,0.13967 0.28125,0.85937 0.0958,0.71978 0.71918,0.91553 0.625,1.1562 -0.0974,0.23832 -0.38232,0.38616 0.39062,0.48438 0.76566,0.0966 1.4844,0.22945 1.4844,0.42187 0,0.1932 0.63775,0.29582 0.73437,0.4375 0.0942,0.145 0.66819,0.42799 0.76563,0.14063 0.0958,-0.28582 0.29336,-0.86227 0.4375,-0.76563 0.1442,0.0998 1.3401,0.0979 1.4375,0.48438 0.0748,0.28441 0.54718,0.36096 0.78125,0.42187 -0.85539,-2.2058 -1.8214,-4.3548 -2.875,-6.4531 l -1.7031,-0.42188 -1.0625,-0.53125 -0.57812,-0.625 h 0.53125 l -0.1875,-0.76562 0.0937,-0.53125 0.46875,-0.28125 0.23437,-0.92188 c -2.732,-4.6875 -5.9711,-9.0352 -9.625,-13 -0.20744,0.11419 -0.6007,0.39328 -0.75,0.45313 -0.1602,0.0636 -0.63693,0.25507 -0.73437,0.0312 -0.0942,-0.22544 -0.29688,-0.57813 -0.29688,-0.57813 0,0 -0.15191,-0.31455 -0.21875,-0.21875 -0.057,0.0926 -0.42187,0.125 -0.42187,0.125 l -0.82813,0.3125 c 0,0 -0.45269,0.32621 -0.54687,0.39063 -0.099,0.0636 -0.57323,0.0605 -0.76563,0.15625 -0.1916,0.0974 -0.77888,0.58399 -0.9375,0.35937 -0.1626,-0.22304 -0.25506,0.14948 -0.45312,-0.20312 -0.1876,-0.35184 -0.11753,-0.73788 -0.34375,-0.67188 -0.22142,0.0644 -0.73648,0.20009 -0.79688,0.32813 -0.0668,0.128 -0.14164,0.12198 -0.26562,0.25 -0.1288,0.1272 -1.0625,0.23437 -1.0625,0.23437 v -0.0781 l 1.0625,-0.89063 0.23437,-0.875 c 0,0 0.98587,0.16884 1.0156,0.29688 0.0314,0.1264 0.26364,-0.28874 0.51562,-0.0625 0.25924,0.22382 0.5764,0.19658 0.60938,0.39062 0.028,0.1932 0.21856,0.41009 0.25,0.28125 0.0314,-0.1288 0.0312,-0.54687 0.0312,-0.54687 0,0 -0.27488,-0.15016 -0.4375,-0.25 -0.1618,-0.095 -0.12975,-0.39177 0.0312,-0.48438 0.1578,-0.0958 0.60477,-0.36382 0.73437,-0.26562 0.1288,0.0934 0.70313,-0.125 0.70313,-0.125 0,0 0.0934,-0.18941 0.15625,-0.28125 0.0668,-0.0998 0.39062,-0.96875 0.39062,-0.96875 0,0 -0.23405,-0.10078 -0.29687,-0.39063 -0.0124,-0.0553 -0.002,-0.13231 0.0156,-0.21875 -2.5409,-2.4197 -5.2626,-4.6586 -8.125,-6.7031 z m -71.859,0.9375 c -0.0966,0.0998 -0.4375,0.4375 -0.4375,0.4375 l -3.1719,-0.29688 -1.1094,1.9219 -0.23438,1.0156 c 0,0 -1.7406,1.7405 -1.9531,1.875 0.1272,-0.037 0.9375,0.76563 0.9375,0.76563 l -0.71875,1.7344 -2.75,1.5938 -1.3438,0.1875 c 0,0 -0.81395,2.9811 -0.76563,3.1719 0.0474,0.194 -1.1094,0.71875 -1.1094,0.71875 l -0.8125,0.57812 -0.34375,-1.0469 c 0,0 -0.36909,-0.81113 -0.51563,-1.0156 0.21498,0.0886 1,0.1875 1,0.1875 l 0.14063,-0.67187 -0.76563,0.0469 0.32813,-1.1094 0.73437,-1.2031 -2.5156,-0.1875 -0.5625,-0.67187 -1.2656,-0.1875 -0.0937,-0.53125 -0.85937,-0.53125 -1.0625,-0.48438 -1.1562,0.14063 -0.0469,-1 0.28125,-0.96875 -1,-0.17188 c -14.869,13.363 -24.327,32.634 -24.703,54.109 l 1.1719,0.28125 1.8906,-0.57813 1.2031,0.57813 1.8281,2.1094 1.875,0.48438 1.9219,0.67187 h 0.90625 l 0.25,1.1094 c 0,0 0.87008,1.1059 1.0625,1.25 0.1908,0.144 0.0469,1.3906 0.0469,1.3906 l 0.8125,0.4375 0.95312,1.0156 0.625,0.57812 0.6875,0.76563 0.42188,-0.29688 0.875,0.25 1.25,1.1562 0.8125,-0.48437 -0.23438,-0.92188 0.76563,-0.76562 h 0.67187 l 0.71875,0.57812 -0.0469,0.67188 0.875,1.3906 0.0469,3.9062 -0.78125,1.25 -1.0469,0.71875 -0.0469,1.1562 -1.1094,0.4375 -0.4375,1.5312 -0.67188,1.3438 0.14063,1.1562 0.96875,0.875 -0.875,0.90625 -0.625,0.92188 0.57812,1.8281 c 0,0 0.28125,0.90992 0.28125,0.8125 0,-0.0958 0.92188,0.625 0.92188,0.625 l 1.6875,3.3594 1.625,2.375 c 0,0 2.3892,4.7747 2.4375,4.8125 0.71736,0.52736 5.9375,4.2969 5.9375,4.2969 l 0.90625,4.6875 0.25,9.875 0.76562,2.8281 -0.0781,1.2969 c 4.0462,2.7927 8.3816,5.1976 12.953,7.1562 0.39252,5.4e-4 1.1094,0.0781 1.1094,0.0781 l 2.1875,-0.57813 c 0,0 0.82924,-1.4783 0.76562,-1.7344 -0.0644,-0.25602 -0.0625,-1.0938 -0.0625,-1.0938 0,0 -0.004,-0.57219 -0.51562,-0.64063 -0.51608,-0.062 -0.51261,-0.24632 -0.64063,-0.76562 -0.1304,-0.51124 -0.51562,-1.0938 -0.51562,-1.0938 l -0.64063,0.125 0.57813,-0.5625 1.2812,0.95312 1.9219,0.32813 1.4844,-1.4844 1.0156,-2.5 0.45313,-1.8594 h 0.96875 l 1.0156,-1.8594 0.39063,-1.7344 -0.32813,-2.125 0.45313,-0.76563 3.3438,-2.2344 2.5,-0.84375 0.82812,-0.64063 c 0,0 1.2812,-1.7294 1.2812,-1.9219 0,-0.1924 0.51563,-2.6875 0.51563,-2.6875 0,0 0.58162,-2.949 0.51562,-3.1406 -0.062,-0.1956 0.1304,-2.7637 0,-2.8281 -0.1288,-0.0628 0.0625,-0.76563 0.0625,-0.76563 l 2.4375,-3.4688 1.1562,-2.625 c 0,0 0.83277,-1.3533 0.70313,-1.6094 -0.1304,-0.25682 -0.82813,-2.4375 -0.82813,-2.4375 0,0 -1.5425,-0.32319 -1.6094,-0.51563 -0.0636,-0.1916 -2.6896,-2.5019 -2.75,-2.4375 -0.0684,0.0628 -1.09,-1.0276 -1.2188,-0.70312 -0.1256,0.32044 -2.125,0.32812 -2.125,0.32812 l -2.1094,-0.51562 c 0,0 -0.89392,0.63506 -0.70312,0.375 0.1924,-0.25602 0.0636,-1.7897 0,-1.5312 -0.0636,0.25362 -3.2188,-1.3438 -3.2188,-1.3438 l -1.0938,0.95312 v -1.2188 l -1.6562,-1.0156 0.1875,-1.3594 -0.76563,-0.64062 c 0,0 -0.1231,0.1897 -0.1875,0.0625 -0.0636,-0.1272 -0.51562,-2.6875 -0.51562,-2.6875 l -2.4375,-1.9844 -2.9531,-0.14062 -2.7031,-1.4688 -0.57813,-1.3438 c 0,0 -1.5312,-0.71301 -1.5312,-0.90625 0,-0.1916 -0.44608,-0.0582 -0.57812,-0.125 -0.1248,-0.062 -0.0625,-0.70313 -0.0625,-0.70313 l -0.70313,-0.57812 -0.26562,-0.17188 -0.625,-0.1875 -0.375,-0.54687 c 0,0 1.3941,-0.61243 1.25,-0.5625 -0.141,0.0452 -3.125,0.46875 -3.125,0.46875 l -0.29688,0.57812 -1.3906,-0.71875 -2.3594,-0.14062 c 0,0 -1.6889,-0.66776 -1.6406,-0.85938 0.0508,-0.1932 -0.53125,-0.92187 -0.53125,-0.92187 0,0 -0.37215,0.9198 -0.46875,1.0156 -0.095,0.0958 -1.2969,1.0938 -1.2969,1.0938 l 0.0937,1.5469 -0.82812,-0.85938 0.57812,-0.82812 v -1.1562 c 0,-0.1474 0.73438,-0.46875 0.73438,-0.46875 l -0.29688,-0.625 c 0,0 -0.85937,0.23008 -0.85937,0.375 0,0.1432 -1.1562,0.82812 -1.1562,0.82812 l -1.4062,0.51563 h -0.60938 c 0,0 -0.63229,1.0118 -0.78125,1.0625 -0.1424,0.049 -0.0937,0.96875 -0.0937,0.96875 0,0 -1.544,1.7229 -1.6406,1.5312 -0.0958,-0.1916 -1.7188,-1.5312 -1.7188,-1.5312 l -1.9375,0.23437 -1.0938,0.57813 -1.3594,-0.90625 -1.0469,-1.6406 0.0937,-1.9219 0.57812,-2.125 0.23438,-1.3906 -1.4375,-1.0625 c 0,0 -2.9375,0.23789 -2.9375,0.0937 0,-0.1418 -1.5968,0.0536 -1.5469,-0.0937 0.046,-0.1424 0.57813,-1.0566 0.57813,-1.2031 0,-0.145 0.39062,-1.25 0.39062,-1.25 l 0.625,-1.25 0.8125,-2.3906 0.48438,-0.82812 -2.4062,-0.14063 -1.4375,0.57813 -0.8125,2.4062 -4.0938,1.0938 -1.0156,-0.76563 c 0,0 -0.0985,0.4439 -0.0469,0.20313 0.045,-0.23994 -1.25,-1.9375 -1.25,-1.9375 l -0.625,-2.3438 c 0,0 1.6453,-4.8646 1.5938,-4.7656 -0.0476,0.0942 0.0469,-1.7812 0.0469,-1.7812 l 5.1406,-3.375 1.9688,0.29688 0.48437,0.46875 1.2031,-0.1875 1.2031,-1.2031 1.5469,0.1875 1.4844,-0.28125 0.92188,1.0156 1.3438,-0.53125 0.71875,0.76562 0.4375,0.48438 v 0.8125 l -0.34375,0.78125 0.34375,1.7188 0.95312,1.3594 0.625,0.23438 0.76563,-2.1094 -0.14063,-1.9844 -0.32812,-1.5781 v -1.1562 l 1.9688,-2.4062 2.5469,-1.8281 2.0156,-1.1562 1.7812,-1.9219 -0.0937,-1.8281 0.78125,-0.14063 0.75,-1.6406 0.78125,0.0937 1.4844,-1.875 2.5,-0.85938 1.5469,-0.29687 0.48437,-0.51563 -0.57812,-0.48437 1.2031,-1.7812 3.7969,-1.5 2.3125,-0.67188 -1.875,1.2031 0.375,0.92187 1.4062,-0.39062 1,-0.625 2.6562,-0.71875 c 0,0 0.41802,-0.70419 0.51562,-0.82813 -0.0926,0.23992 1.3594,-0.23437 1.3594,-0.23437 l -0.29688,-0.57813 0.10938,-0.76562 -0.78125,0.28125 -1.1562,1.25 -1.875,-0.0937 -0.85938,-1.2969 0.8125,-1.1094 c 0,0 0.81315,-1.6303 0.76563,-1.5312 -0.0492,0.0934 -1.2969,-0.39063 -1.2969,-0.39063 l -1.875,0.67188 c -0.1916,0 -1.9686,1.0652 -1.9219,0.92187 0.0492,-0.1442 -0.90625,0.53125 -0.90625,0.53125 l 2.4375,-1.9688 1.0156,-0.15625 1.1562,-1.0625 h 5.5312 l 1.875,-0.375 2.5,-1.3438 0.20313,0.23438 -1.0625,1.0156 -1.2969,1.3438 -1.25,1.3438 -0.625,0.8125 1.9688,0.0937 c 0,0 1.541,0.0388 1.6875,0 0.1924,-0.0482 0.23438,0.67188 0.23438,0.67188 l 0.8125,-0.5625 0.4375,1.0938 1.4531,-1.0938 -0.4375,-1.25 0.39063,-1.1719 -1.6875,0.0625 v -0.625 c 0,0 -0.62276,-0.72 -0.67188,-0.625 -0.0498,0.0974 0.95537,-0.81457 0.90625,-0.71875 -0.0474,0.0966 -0.4375,-0.48437 -0.4375,-0.48437 l 1.1562,-1.4531 -0.5625,-1.625 -0.20312,-0.82812 -1.4844,-0.71875 -0.53125,-0.71875 -0.6875,-0.53125 0.53125,-1.25 -0.23437,-0.90625 c 0,0 -0.43608,-2.9856 -0.48438,-2.8906 -0.0506,0.0974 -2.0156,1.6406 -2.0156,1.6406 l -2.0156,1 -1.0625,-0.90625 0.0937,-1.2031 0.92188,-0.875 -1.5,-0.46875 -0.0937,-0.39062 c 0,0 -1.3425,-1.345 -1.4375,-1.25 z m 62.375,3.9062 -0.45313,0.1875 -0.42187,0.625 c 0,0 -0.38986,0.0958 -0.54688,0 -0.1586,-0.0966 -0.48137,9.5e-4 -0.60937,-0.0312 -0.128,-0.0362 -0.42188,0.375 -0.42188,0.375 0,0 -0.4329,0.48422 -0.5625,0.51562 -0.128,0.0322 -0.57907,0.54673 -0.54687,0.57813 0.0346,0.0322 0.0625,0.45312 0.0625,0.45312 0,0 -0.0898,0.15529 -0.25,0.1875 -0.1594,0.0314 0.125,0.57813 0.125,0.57813 l 0.39062,0.1875 c 0,0 -0.23215,0.23292 -0.35937,0.20312 -0.1304,-0.0354 -0.42701,0.31205 -0.20313,0.40625 0.22536,0.0934 0.32832,0.23393 0.29688,0.32813 -0.028,0.0998 0.48437,0.15625 0.48437,0.15625 l 0.40625,-0.0937 -0.28125,0.45312 c 0,0 0.0613,0.27743 0.15625,0.40625 0.099,0.128 0.42188,0 0.42188,0 0,0 0.76275,-0.12595 0.85937,-0.0937 0.0934,0.0306 -0.0312,0.32813 -0.0312,0.32813 l 0.29688,0.4375 c 0,0 0.1553,0.65293 0.1875,0.84375 0.0346,0.1956 -0.25,0.125 -0.25,0.125 0,0 -0.61556,0.0907 -0.75,0.0625 -0.128,-0.0322 -0.36991,0.22915 -0.59375,0.48437 -0.22622,0.26166 0.0312,0.15625 0.0312,0.15625 h 0.46875 c 0,0 0.0329,0.32029 0.0625,0.45313 0.0292,0.128 -0.37442,0.25095 -0.5,0.21875 -0.128,-0.0306 -0.71875,0.26562 -0.71875,0.26562 l 0.0312,0.46875 0.71875,0.0781 0.70312,0.0937 0.125,0.21875 c 0,0 -0.4525,0.0966 -0.57812,0 -0.128,-0.0958 -0.51563,0.51562 -0.51563,0.51562 l -0.34375,0.375 -0.75,0.57813 0.42188,0.20312 0.25,-0.32812 0.65625,0.0312 0.6875,-0.0937 c 0,0 0.43463,-0.51563 0.53125,-0.51563 0.0934,0 1.0781,-0.0312 1.0781,-0.0312 0,0 0.81041,-0.15815 0.90625,-0.0937 0.0958,0.0644 0.72827,0.18813 0.82813,0.21875 0.0942,0.0314 1.3438,-0.34375 1.3438,-0.34375 0,0 0.26452,-0.41887 0.32812,-0.54687 0.0668,-0.128 -0.35726,-0.24713 -0.45312,-0.34375 -0.0958,-0.0966 0.3216,-0.23231 0.51562,-0.32813 0.1908,-0.0958 0.26194,-0.45077 0.35938,-0.60937 0.0926,-0.1586 -0.13968,-0.48473 -0.17188,-0.57813 -0.0308,-0.099 -0.48221,-0.0639 -0.60937,-0.0937 -0.128,-0.033 -0.67188,0.0312 -0.67188,0.0312 l 0.0312,-0.64062 c 0,0 -1.501,-2.0604 -1.4688,-2.1562 0.032,-0.0934 -0.35538,-0.7046 -0.51562,-0.73438 -0.1602,-0.0322 -0.35448,-0.16579 -0.54688,-0.42187 -0.1908,-0.25442 0.26563,-0.57813 0.26563,-0.57813 0,0 0.52857,-0.57592 0.59375,-0.70312 0.0644,-0.1288 -0.062,-0.51468 -0.15625,-0.54688 -0.0974,-0.0314 -1.2188,0.0312 -1.2188,0.0312 0,0 -0.31105,-0.24795 -0.28125,-0.34375 0.033,-0.1006 0.35572,-0.125 0.45312,-0.125 0.091,0 0.66888,-1.124 0.79688,-1.1562 0.1272,-0.0346 -0.0937,-0.32812 -0.0937,-0.32812 z m -5.2031,4.6875 -0.51562,0.15625 -0.28125,0.42187 c 0,0 -0.48483,0.50527 -0.39063,0.40625 0.099,-0.0926 0.35728,-0.0813 0.29688,0.0781 -0.0668,0.1594 -0.32813,0.3125 -0.32813,0.3125 h -0.375 l -0.32812,-0.1875 -0.48438,0.0625 -0.15625,0.28125 0.1875,0.45312 -0.3125,0.32813 0.375,0.3125 0.39063,0.0937 -0.0625,0.45312 -0.42188,0.1875 -0.54687,0.35938 -0.15625,0.60937 0.48437,0.28125 0.76563,0.17188 0.79687,-0.20313 0.6875,-0.375 0.1875,-0.1875 1.125,-0.0781 0.125,-0.46875 0.25,-0.48438 v -1.3906 l 0.60938,-0.34375 -0.1875,-0.89063 -0.96875,-0.23437 -0.76563,-0.125 z m -86.094,40.719 c 0,-0.1006 -1.6406,1.2969 -1.6406,1.2969 v 0.14063 c 0,0 0.14832,0.66758 0.20312,0.8125 0.045,0.1432 1.1073,-0.77301 1.2031,-1.1562 0.0958,-0.38324 0.85525,-0.48153 1.0469,-0.57813 0.1956,-0.0934 0.29114,0.39063 0.48438,0.39063 0.1948,0 1.0625,0.29687 1.0625,0.29687 l 1.7344,0.5625 0.67188,0.625 c 0,0 0.28125,1.5387 0.28125,1.7344 0,0.194 1.3125,0.0937 1.3125,0.0937 l 2.5469,-0.23438 c -4.6e-4,-4.4e-4 0.81715,-0.48008 0.76563,-0.625 -0.0442,-0.1426 -0.77221,-0.375 -1.1562,-0.375 -0.38484,0 -1.7816,-1.3516 -1.875,-1.6406 -0.0998,-0.28904 -3.2188,-1.0625 -3.2188,-1.0625 0,0 -3.4219,-0.18703 -3.4219,-0.28125 z m 10.969,3.8906 c -0.38164,0 0,0.4375 0,0.4375 l -0.14062,1.3906 h -1.5938 l -0.0469,0.14062 c 0,0 -0.4375,0.14854 -0.4375,0.4375 10e-4,0.28822 0.58499,0.18543 0.82813,0.28125 0.23752,0.0958 0.61766,-0.0469 0.8125,-0.0469 0.1948,0 0.82812,-0.14063 0.82812,-0.14063 0,0 0.1875,0.43321 0.1875,0.57813 0,0.1416 1,-0.0427 1,-0.1875 0,-0.145 0.25,-0.53125 0.25,-0.53125 l 1.2031,-0.25 c 0,0 1.6379,0.0469 1.7812,0.0469 0.145,0 0.24444,-0.28354 -0.0469,-0.8125 -0.28582,-0.53058 -1.1201,-0.62996 -1.3125,-1.0156 -0.1924,-0.38162 -1.1022,-0.1376 -1.3438,0 -0.23992,0.1458 -1.5815,-0.32813 -1.9688,-0.32813 z"
           id="path3089" />
        <ellipse
           style="opacity:0.494;fill:url(#linearGradient4694);fill-rule:evenodd;stroke-width:0.59506273;filter:url(#filter9189)"
           id="path4612"
           cx="185.48689"
           cy="633.23969"
           rx="50.499901"
           ry="32.500107" />
        <ellipse
           style="opacity:1;fill:#ff0000;fill-opacity:1;stroke:#276d6d;stroke-width:1.07606685;stroke-linecap:round;stroke-linejoin:bevel;stroke-miterlimit:4;stroke-dasharray:none;stroke-dashoffset:1.21209455;stroke-opacity:1;paint-order:stroke fill markers"
           id="path9193"
           cx="138.49976"
           cy="623.10931"
           rx="1.5271013"
           ry="1.5047868" />
        <ellipse
           ry="1.5047868"
           rx="1.5271013"
           cy="621.65015"
           cx="216.83978"
           id="ellipse9195"
           style="opacity:1;fill:#ff0000;fill-opacity:1;stroke:#276d6d;stroke-width:1.07606685;stroke-linecap:round;stroke-linejoin:bevel;stroke-miterlimit:4;stroke-dasharray:none;stroke-dashoffset:1.21209455;stroke-opacity:1;paint-order:stroke fill markers" />
      </g>
      <g
         id="g9317"
         transform="matrix(0.44367177,0,0,0.4503813,309.72973,324.8835)">
	
	
	
	
	
	
	
	
	
	
	
	
	
	
	
	
	
	
	
	
	
	
	
	
	
	
	
	
	
	
	
	
	
	
	
	
	
	
	
	
	
	
	
	
	
	
	
	
	
	
	
	
	
	
	
	
	
	
	
	<g
   id="g9533">
  <path
     inkscape:connector-curvature="0"
     id="path9451"
     d="m 640.75594,36.826531 c -0.58481,-0.0016 -1.16961,0.0059 -1.75586,0.02344 -5.99,0.07 -11.99046,-0.14977 -17.98047,0.24023 -10.41,1.02 -20.93992,1.27039 -31.16992,3.65039 -5,0.89 -9.95935,1.98016 -14.93945,2.91016 -10.14,0.92 -19.43125,5.27929 -29.03125,8.27929 -7.69,3.09 -15.50883,6.53914 -21.54883,12.36914 -3.83,3.54001 -8.27062,6.37063 -11.89062,10.14063 -17.16,17.16 -29.7793,38.329689 -39.5293,60.429689 -4.43,11.73 -10.02937,22.99133 -14.10937,34.86133 -3.81001,10.15 -6.38118,20.71882 -8.70118,31.29882 -3.32,19.77 -4.48914,40.07024 -1.86914,59.99024 0.78,4.94 1.67969,10.05008 4.42969,14.33008 2.93,4.28 5.72961,8.76906 9.84961,12.03906 0.004,-1.16875 0.0461,-2.3349 0.125,-3.5 -0.0789,1.1651 -0.12125,2.33125 -0.125,3.5 0,4.57 0.22984,9.41094 2.58984,13.46094 2.92,5.56 8.09125,9.36953 13.03125,13.01953 7.48,5.36 16.69985,7.21953 24.83985,11.26953 4.77,2.25 3.81984,8.52055 6.58984,12.31055 7.25,9.91 18.02875,16.14031 27.71875,23.32031 4.26,3.22 8.98094,5.73922 13.71094,8.19922 11.49,5.82 22.89054,11.81117 34.06055,18.20117 -0.14001,7.85 -1.57016,15.75023 -4.66016,22.99023 0.6,0.85 1.25344,1.65055 1.94922,2.41211 -0.69578,-0.76156 -1.34922,-1.56211 -1.94922,-2.41211 -1.67,0.16 -3.43117,0.31907 -4.70117,1.53907 -4.91,4.06 -9.40899,8.60125 -14.20899,12.78125 -2.83,2.68 -6.13008,5.04 -8.08008,8.5 -5.67,0.33 -11.36125,1.28851 -16.53125,3.72851 -7.98,0.95 -15.43828,4.1811 -22.73828,7.3711 -9.96,4.22 -19.02109,10.19908 -28.12109,15.95898 -5.48,3.34 -9.76891,8.19008 -14.37891,12.58008 -6.77,7.42 -12.80093,15.56984 -17.71093,24.33984 -4.39,9.02 -9.20071,18.04125 -10.97071,28.03125 -5.41,19.91 -6.74851,40.56875 -9.22851,60.96875 -1.06,6.78 -0.18149,13.80016 -2.27149,20.41016 -3.52,17.29 -2.43859,35.07133 -2.55859,52.61133 -0.01,18.87 5.4089,37.25929 12.6289,54.52929 6.36001,10.5801 14.97125,19.59039 24.03126,27.90039 3.75,3.73 8.50914,6.09883 13.11914,8.54883 -0.82,5.75 1.38046,11.32102 1.48046,17.04102 0.24,14.3 0.69868,28.59039 0.38868,42.90039 -0.29,8.13 -2.04008,16.10836 -3.58008,24.06836 -0.63,5.1601 -5.49938,8.24109 -6.85938,13.12109 -3.07,10.19 -6.03953,20.42984 -8.26953,30.83984 -0.59,3.83 -1.91062,8.25922 0.60938,11.69922 3.87,5.93 8.06078,11.71149 13.30078,16.52149 0.03,5.67 4.15906,10.1982 4.28906,15.9082 -1.27,1.08 -3.06867,1.88117 -3.38867,3.70117 -1.34,5.17 -2.07063,10.64071 -1.39063,15.97071 1.26,1.4801 3.06,2.33828 4.75,3.23828 8.52,4.13 16.85993,8.93984 26.16993,11.08984 5.03,1.15 10.0096,2.54023 15.0996,3.49023 16.96001,3.26001 33.85071,6.87027 50.97071,9.24024 26.74,4.8201 54.14899,6.77023 81.20898,3.74023 12.2099,-1.1 24.42063,-2.31007 36.64063,-3.33007 14.44,-2.30997 29.13961,-3.07993 43.34961,-6.66993 8.17,-1.98 15.8707,-5.42007 23.7207,-8.33007 6.89,-2.56 12.37065,-7.58883 18.06055,-12.04883 2.51,-1.62 1.00961,-4.83141 0.84961,-7.19141 -1.13,-4.97 -1.24993,-10.06984 -1.91993,-15.08984 0.1,-6.68 -2.11039,-14.46985 2.59961,-20.08985 3.33,-4.67 6.4593,-9.4707 10.0293,-13.9707 2.03,-2.96 4.72992,-6.00906 4.66992,-9.78906 -2.49,-14.66 -11.93937,-26.69914 -17.10937,-40.36914 -2.45,-17.12 -4.53078,-34.34992 -4.55078,-51.66992 -0.65,-9.31 -0.50914,-18.64094 -0.61914,-27.96094 4.56,0 9.26039,0.34906 13.65039,-1.21094 5.36,-1.88 10.45994,-4.55914 15.08984,-7.86914 6.17,-4.11 10.59906,-10.1493 15.28906,-15.7793 2.57,-2.7699 1.81164,-6.97976 3.93164,-10.00976 4.52,-7.06 8.96891,-14.24039 11.87891,-22.15039 2.93,-6.78 2.55062,-14.3611 4.64062,-21.3711 1.75,-6.04 1.22914,-12.40914 1.36914,-18.61914 0.25001,-11.17 -2.99031,-21.97953 -4.07031,-33.01953 -1.25,-10.82 -3.56843,-21.49109 -5.89843,-32.12109 -3.29001,-10.42 -5.4518,-21.14016 -8.3418,-31.66016 -7.43,-21.31 -13.42867,-43.38953 -24.88867,-63.01953 -6.01,-12.19 -12.52024,-24.26977 -21.24024,-34.75977 -6.19,-7.36 -14.15976,-12.96937 -22.50976,-17.60937 -6.18,-2.96 -12.81024,-4.91133 -19.49024,-6.36133 -4.18,-0.98 -8.28008,-2.3289 -12.58008,-2.6289 -5.53,-0.65 -10.84086,-2.47094 -16.38086,-2.96094 -8.53,-8.29 -16.96015,-16.70031 -25.41015,-25.07031 -1.47,-1.68 -4.18836,-2.54008 -5.81836,-0.58008 -3.08,-7.02 -5.37992,-14.34922 -6.41992,-21.94922 16.89,-6.44 31.53976,-17.18078 47.00976,-26.30078 10.7,-7.81 21.09906,-16.12899 30.28906,-25.70899 3.42001,-3.86 8.8304,-4.04937 13.4004,-5.60937 6.39,-1.94 11.44101,-6.50125 16.79101,-10.28125 2.95,-2.33 6.1693,-4.44992 8.5293,-7.41992 1.79,-2.91 2.29953,-6.37907 3.51953,-9.53907 0.83,-2.67 2.22953,-5.21125 2.51953,-8.03125 1.88,-2.27 4.06148,-4.31851 5.77149,-6.72851 6.3,-13.99 7.30882,-29.52031 9.04882,-44.57031 0.04,-7.39001 1.19063,-14.74086 0.89063,-22.13086 -0.69,-12.52 -1.98063,-25.09899 -5.39063,-37.20899 -0.8,-4.31 -2.78968,-8.36125 -2.92968,-12.78125 -0.2,-4.21 -2.22071,-7.99922 -3.47071,-11.94922 -3.33,-9.98 -6.80906,-19.96109 -11.53906,-29.37109 -7.7,-16.32 -16.63961,-32.108439 -27.34961,-46.648439 -4.38,-4.95 -9.29976,-9.38047 -13.75976,-14.23047 -3.49001,-5.72 -9.9804,-8.20109 -15.4004,-11.62109 -7.27,-4.36 -15.23984,-7.27969 -23.33984,-9.67969 -9.56,-3.76 -19.82078,-4.88 -29.80078,-7 -8.61563,-1.51875 -17.23173,-3.6082 -26.00391,-3.63281 z m 0.70313,174.683589 c 10e-4,0.001 0.003,0.003 0.004,0.004 0.327,0.81366 0.66324,1.6278 1.01563,2.4375 -0.35297,-0.81104 -0.69203,-1.62641 -1.01953,-2.44141 z m -124.32813,25.0293 c 0.4775,2.92453 1.03242,5.83547 1.66993,8.73047 0.4075,2.55 0.88148,5.09015 1.42773,7.61328 -0.54625,-2.52313 -1.02023,-5.06328 -1.42773,-7.61328 -0.63751,-2.895 -1.19243,-5.80594 -1.66993,-8.73047 z m 166.35938,15.64062 c 0.21031,0.28907 0.34039,0.6318 0.43164,0.99805 -0.0913,-0.36625 -0.22133,-0.70898 -0.43164,-0.99805 z m -211.50195,5.04688 c 0,0 0.002,0 0.002,0 -0.31615,0.34633 -0.61852,0.71047 -0.90625,1.08203 0.28773,-0.37156 0.58814,-0.7357 0.9043,-1.08203 z m -2.47852,3.33398 c -0.56375,1.0225 -1.09481,2.06178 -1.59375,3.11719 0.49894,-1.05541 1.03,-2.09469 1.59375,-3.11719 z m 225.30078,265.70508 c -0.5393,-0.0216 -1.06687,0.0157 -1.58594,0.10352 0.51846,-0.0876 1.0473,-0.12513 1.58594,-0.10352 z m -119.58984,2.9336 c -0.002,3.52412 0.0773,7.05101 0.0977,10.57812 -0.0204,-3.52711 -0.0996,-7.054 -0.0977,-10.57812 z m 128.92773,6.20312 c -0.42452,0.20969 -0.84056,0.4307 -1.24805,0.6582 0,0 0,-0.002 0,-0.002 0.4075,-0.2275 0.82352,-0.44656 1.24805,-0.65625 z m 28.16797,16.72852 c -0.52236,0.17909 -1.02596,0.42274 -1.51367,0.71484 0.48771,-0.2921 0.99131,-0.53575 1.51367,-0.71484 z m -105.48633,98.49023 c 0.22222,0.35605 0.40864,0.73766 0.5625,1.13672 -0.15386,-0.39906 -0.34028,-0.78067 -0.5625,-1.13672 z m -50.87109,18.38867 c 0,0 0.002,0 0.002,0 0.0337,0.37625 0.0395,0.77049 0.0332,1.17578 0.006,-0.40529 -10e-4,-0.79953 -0.0352,-1.17578 z m 126.66211,19.12305 c 0.56484,1.81797 1.08047,3.65141 1.58984,5.48828 0.76406,2.75531 1.5124,5.51709 2.38281,8.24023 -0.87041,-2.72314 -1.61875,-5.48492 -2.38281,-8.24023 -0.50937,-1.83687 -1.025,-3.67031 -1.58984,-5.48828 z m 8.98437,25.84766 c 0.41126,0.63138 0.85629,1.23533 1.3418,1.80468 -0.48551,-0.56935 -0.93054,-1.1733 -1.3418,-1.80468 z"
     style="fill:#2f2f2f;stroke:#2f2f2f;stroke-width:13.5269289;stroke-miterlimit:4;stroke-dasharray:none" />
  <path
     style="fill:#2f2f2f;stroke:#2f2f2f;stroke-width:0.30000001"
     inkscape:connector-curvature="0"
     d="m 589.85,40.74 c 10.23,-2.38 20.76,-2.63 31.17,-3.65 5.99,-0.39 11.99,-0.17 17.98,-0.24 9.38,-0.28 18.57,1.99 27.76,3.61 9.98,2.12 20.24,3.24 29.8,7 8.1,2.4 16.07,5.32 23.34,9.68 5.42,3.42 11.91,5.9 15.4,11.62 4.46,4.85 9.38,9.28 13.76,14.23 10.71,14.54 19.65,30.33 27.35,46.65 4.73,9.41 8.21,19.39 11.54,29.37 1.25,3.95 3.27,7.74 3.47,11.95 0.14,4.42 2.13,8.47 2.93,12.78 3.41,12.11 4.7,24.69 5.39,37.21 0.3,7.39 -0.85,14.74 -0.89,22.13 -1.74,15.05 -2.75,30.58 -9.05,44.57 -1.71,2.41 -3.89,4.46 -5.77,6.73 0.03,-6.89 0.48,-13.97 -1.84,-20.59 -1.49,-6.18 -3.17,-13.58 -9.69,-16.32 -4.01,-0.66 -8.04,1.37 -10.48,4.5 -6.08,8.05 -13.76,14.93 -22.43,20.09 -0.72,-3.33 -0.66,-6.74 -0.42,-10.11 0.51,-8.83 -0.48,-17.63 -1.53,-26.38 -7.07,-0.12 -14.25,0.01 -21.12,-1.93 -18.35,-4.08 -37.38,-7.46 -53.62,-17.51 -7.2,-4.81 -15.17,-8.54 -21.44,-14.62 2.62,6.52 5.97,13.03 11.41,17.66 9.1,8.41 18.88,16.24 29.71,22.33 1.64,0.62 1.36,2.54 1.74,3.94 -9.35,0.37 -18.68,2.23 -28.06,1.26 -5.41,-0.59 -10.76,-1.84 -16.23,-1.62 -17.02,0.21 -33.94,-2.95 -50.1201,-8.06 -16.25,-6.89 -31,-17.09 -43.86,-29.13 -7.13,-5.82 -12.9,-13.05 -19.18,-19.72 -4.26,-3.85 -7.09,-8.92 -10.88,-13.19 -1.89,8.21 -1.11,16.67 -1.25,25.01 0.29,11.85 1.51,23.7 4.06,35.28 1.63,10.2 4.33,20.23 8.42,29.73 -9.23,0.36 -18.97,-1.06 -26.59,-6.64 -4.21,-3.24 -9.49,-4.89 -13.21,-8.77 -2.55,-2.54 -5.41,-5.66 -9.41,-5.1 -3.98,-0.47 -6.59,3.14 -8.5,6.07 -4.51,8.18 -6.97,17.48 -7,26.83 -4.12,-3.27 -6.92,-7.76 -9.85,-12.04 -2.75,-4.28 -3.65,-9.39 -4.43,-14.33 -2.62,-19.92 -1.45,-40.22 1.87,-59.99 2.32,-10.58 4.89,-21.15 8.7,-31.3 4.08,-11.87 9.68,-23.13 14.11,-34.86 9.75,-22.1 22.37,-43.27 39.53,-60.43 3.62,-3.77 8.06,-6.6 11.89,-10.14 6.04,-5.83 13.86,-9.28 21.55,-12.37 9.6,-3 18.89,-7.36 29.03,-8.28 4.9801,-0.93 9.9401,-2.02 14.9401,-2.91 z"
     id="path9197" />
  <path
     style="fill:#f2c5b2;stroke:#f2c5b2;stroke-width:0.30000001"
     inkscape:connector-curvature="0"
     d="m 515.99,184.98 c 3.79,4.27 6.62,9.34 10.88,13.19 6.28,6.67 12.05,13.9 19.18,19.72 12.86,12.04 27.61,22.24 43.86,29.13 16.1801,5.11 33.1,8.27 50.1201,8.06 5.47,-0.22 10.8199,1.03 16.23,1.62 9.38,0.97 18.71,-0.89 28.06,-1.26 -0.38,-1.4 -0.1,-3.32 -1.74,-3.94 -10.83,-6.09 -20.61,-13.92 -29.71,-22.33 -5.44,-4.63 -8.79,-11.14 -11.41,-17.66 6.27,6.08 14.24,9.81 21.44,14.62 16.24,10.05 35.27,13.43 53.62,17.51 6.87,1.94 14.05,1.81 21.12,1.93 1.05,8.75 2.04,17.55 1.53,26.38 -0.24,3.37 -0.3,6.78 0.42,10.11 8.67,-5.16 16.35,-12.04 22.43,-20.09 2.44,-3.13 6.47,-5.16 10.48,-4.5 6.52,2.74 8.2,10.14 9.69,16.32 2.32,6.62 1.87,13.7 1.84,20.59 -0.29,2.82 -1.69,5.36 -2.52,8.03 -1.22,3.16 -1.73,6.63 -3.52,9.54 -2.36,2.97 -5.58,5.09 -8.53,7.42 -5.35,3.78 -10.4,8.34 -16.79,10.28 -4.57,1.56 -9.98,1.75 -13.4,5.61 -9.19,9.58 -19.59,17.9 -30.29,25.71 -15.47,9.12 -30.12,19.86 -47.01,26.3 1.04,7.6 3.34,14.93 6.42,21.95 -6.52,6 -14.01,10.78 -20.92,16.29 -6.45,5.15 -13.53,9.51 -19.58,15.15 -0.93,0.03 -1.84,0.06 -2.75,0.06 -13.53,-4.28 -24.87,-13.28 -35.77,-22.07 -3.31,-2.48 -6.58,-5.09 -8.98,-8.49 3.09,-7.24 4.52,-15.14 4.66,-22.99 -11.17,-6.39 -22.57,-12.38 -34.06,-18.2 -4.73,-2.46 -9.45,-4.98 -13.71,-8.2 -9.69,-7.18 -20.47,-13.41 -27.72,-23.32 -2.77,-3.79 -1.82,-10.06 -6.59,-12.31 -8.14,-4.05 -17.36,-5.91 -24.84,-11.27 -4.94,-3.65 -10.11,-7.46 -13.03,-13.02 -2.36,-4.05 -2.59,-8.89 -2.59,-13.46 0.03,-9.35 2.49,-18.65 7,-26.83 1.91,-2.93 4.52,-6.54 8.5,-6.07 4,-0.56 6.86,2.56 9.41,5.1 3.72,3.88 9,5.53 13.21,8.77 7.62,5.58 17.36,7 26.59,6.64 -4.09,-9.5 -6.79,-19.53 -8.42,-29.73 -2.55,-11.58 -3.77,-23.43 -4.06,-35.28 0.1399,-8.34 -0.6401,-16.8 1.2499,-25.01 z"
     id="path9207" />
  <path
     style="fill:#ffffff;stroke:#ffffff;stroke-width:0.30000001"
     inkscape:connector-curvature="0"
     d="m 668.39,409.22 c 1.63,-1.96 4.35,-1.1 5.82,0.58 8.45,8.37 16.88,16.78 25.41,25.07 -2.22,8.37 -7.22,15.56 -12.18,22.52 -5.26,6.85 -10.43,13.87 -17.11,19.44 -10.11,-4.18 -18.65,-11.2 -26.9,-18.22 -6.11,-5.14 -10.11,-12.18 -15.54,-17.95 6.05,-5.64 13.13,-10 19.58,-15.15 6.91,-5.51 14.4,-10.29 20.92,-16.29 z"
     id="path9285" />
  <path
     style="fill:#ffffff;stroke:#ffffff;stroke-width:0.30000001"
     inkscape:connector-curvature="0"
     d="m 575.69,411.7 c 1.27,-1.22 3.03,-1.38 4.7,-1.54 2.4,3.4 5.67,6.01 8.98,8.49 10.9,8.79 22.24,17.79 35.77,22.07 -2.92,6.48 -7.83,11.7 -12.42,17.02 -7.42,8.63 -17.48,15.44 -28.7,17.82 -8.03,-8.58 -16.27,-17.13 -22.39,-27.22 -3.08,-4.93 -6.47,-9.77 -8.23,-15.36 1.95,-3.46 5.25,-5.82 8.08,-8.5 4.8,-4.18 9.3,-8.72 14.21,-12.78 z"
     id="path9287" />
  <path
     style="fill:#f29c9f;stroke:#f29c9f;stroke-width:0.30000001"
     inkscape:connector-curvature="0"
     d="m 536.87,436.71 c 5.17,-2.44 10.86,-3.4 16.53,-3.73 1.7599,5.59 5.15,10.43 8.23,15.36 6.12,10.09 14.36,18.64 22.39,27.22 10.31,10.92 24.35,16.8 36.95,24.52 2.95,1.67 5.75,3.82 9.09,4.66 2.75,-0.08 5.03,-1.94 7.31,-3.28 11.41,-7.6 23.41,-14.65 32.96,-24.63 6.68,-5.57 11.85,-12.59 17.11,-19.44 4.96,-6.96 9.96,-14.15 12.18,-22.52 5.54,0.49 10.85,2.31 16.38,2.96 -2.85,10.75 -7.34,21.19 -14.16,30.04 -7.76,10.1 -16.35,19.63 -26.08,27.88 -7.28,6.19 -15.97,10.32 -24.45,14.58 -4.1,2 -8.28,3.84 -12.57,5.41 -4.7,1.79 -9.81,1.42 -14.74,1.49 -2.93,-0.05 -5.9,0.11 -8.77,-0.53 -2.51,-0.87 -4.39,-2.86 -6.47,-4.42 -4.5,-3.74 -10.06,-5.83 -14.81,-9.19 -7.2,-5.05 -14.78,-9.77 -20.69,-16.37 -5.21,-5.78 -10.33,-11.63 -15.57,-17.37 -8.84,-9.56 -14.17,-21.59 -20.82,-32.64 z"
     id="path9293" />
  <path
     style="fill:#d96c72;stroke:#d96c72;stroke-width:0.30000001"
     inkscape:connector-curvature="0"
     d="m 514.13,444.08 c 7.3,-3.19 14.76,-6.42 22.74,-7.37 6.65,11.05 11.98,23.08 20.82,32.64 5.24,5.74 10.36,11.59 15.57,17.37 5.91,6.6 13.49,11.32 20.69,16.37 4.75,3.36 10.31,5.45 14.81,9.19 2.08,1.56 3.96,3.55 6.47,4.42 2.87,0.64 5.84,0.48 8.77,0.53 4.93,-0.07 10.04,0.3 14.74,-1.49 4.29,-1.57 8.47,-3.41 12.57,-5.41 8.48,-4.26 17.17,-8.39 24.45,-14.58 9.73,-8.25 18.32,-17.78 26.08,-27.88 6.8199,-8.85 11.31,-19.29 14.16,-30.04 4.3,0.3 8.4,1.65 12.58,2.63 6.68,1.45 13.31,3.4 19.49,6.36 8.35,4.64 16.32,10.25 22.51,17.61 8.72,10.49 15.23,22.57 21.24,34.76 11.46,19.63 17.46,41.71 24.89,63.02 2.89,10.52 5.05,21.24 8.34,31.66 2.33,10.63 4.65,21.3 5.9,32.12 1.08,11.04 4.32,21.85 4.07,33.02 -0.14,6.21 0.38,12.58 -1.37,18.62 -2.09,7.01 -1.71,14.59 -4.64,21.37 -2.91,7.91 -7.36,15.09 -11.88,22.15 -2.12,3.03 -1.36,7.24 -3.93,10.0099 -4.69,5.63 -9.12,11.67 -15.29,15.78 -4.6299,3.31 -9.73,5.99 -15.09,7.87 -4.39,1.56 -9.09,1.21 -13.65,1.21 0.11,9.32 -0.03,18.65 0.62,27.96 0.02,17.32 2.1,34.55 4.55,51.67 5.17,13.67 14.62,25.71 17.11,40.37 0.06,3.78 -2.64,6.83 -4.67,9.79 -3.57,4.5 -6.7,9.3 -10.03,13.97 -4.71,5.62 -2.5,13.41 -2.6,20.09 0.04,0.58 0.1,1.75 0.14,2.33 -3.19,0.47 -6.36,1.23 -9.15,2.87 -19.29,11.09 -41.02,17.04 -62.72,21.27 -32.18,5.16 -64.84,8.43 -97.46,6.53 -14.27,-1.21 -28.43,-3.53 -42.66,-5.16 -9.35,-1.51 -18.9,-2.27 -27.98,-5.1 -7.06,-2.63 -14.65,-3.43 -21.64,-6.3 -11.04,-4.34 -22.95,-7.12 -32.65,-14.25 -0.13,-5.71 -4.26,-10.24 -4.29,-15.91 -5.24,-4.81 -9.43,-10.59 -13.3,-16.52 -2.52,-3.44 -1.2,-7.87 -0.61,-11.7 2.23,-10.41 5.2,-20.65 8.27,-30.84 1.36,-4.88 6.23,-7.96 6.86,-13.1201 1.54,-7.96 3.29,-15.9399 3.58,-24.0699 0.31,-14.31 -0.15,-28.6 -0.39,-42.9 -0.1,-5.72 -2.3,-11.29 -1.48,-17.04 -4.61,-2.45 -9.37,-4.82 -13.12,-8.55 -9.06,-8.31 -17.67,-17.3199 -24.03,-27.9 -7.22,-17.27 -12.64,-35.66 -12.63,-54.53 0.12,-17.54 -0.96,-35.32 2.56,-52.61 2.09,-6.61 1.21,-13.63 2.27,-20.41 2.48,-20.4 3.82,-41.06 9.23,-60.97 1.77,-9.99 6.58,-19.01 10.97,-28.03 4.91,-8.77 10.94,-16.92 17.71,-24.34 4.61,-4.39 8.9,-9.24 14.38,-12.58 9.1,-5.7599 18.16,-11.7399 28.12,-15.9599 m 62.52,74.6 -1.04,-0.04 c -0.81,9.37 -0.05,18.79 -0.37,28.19 -7.63,-1.74 -15.51,-1.53 -23.28,-1.76 -7.52,0.35 -16.33,2.55 -20.2,9.69 -3.2,5.15 -7.48,9.65 -9.74,15.34 -2.58,6.4301 -5.85,12.59 -7.65,19.31 -2.07,7.82 -6.32,14.83 -8.34,22.6801 -4.03,11.03 -6.87,22.48 -11.71,33.2 -2.25,5.44 -5.4,10.69 -5.99,16.65 -4.61,4.66 -6.79,10.98 -9.74,16.7 -1.77,3.85 -4.02,7.51 -5.33,11.56 -1.04,4.81 0.71,9.96 3.93,13.6 3.28,3.71 6.06,7.93 10.03,10.99 5.03,3.94 10.88,6.66 16.63,9.36 5.97,2.87 12.75,2.35 19.18,2.2599 4.61,-0.06 8.39,-3.0099 12.36,-4.98 1.5,-1.08 3.85,-1.69 4.11,-3.81 1.74,-8.61 2.5,-17.39 3.99,-26.05 0.25,-1.6 0,-3.21 -0.24,-4.78 3.45,-3.66 3.29,-9.09 4.09,-13.74 9.24,-2.98 19.09,-2.68 28.62,-4.04 0.27,3.01 -1.13,7.16 2.0099,9.08 5.6201,3.67 12.71,2.0099 19.01,2.05 26.68,-0.09 53.37,-0.04 80.05,-0.02 2.1,-0.03 4.1899,-0.35 6.27,-0.72 4.77,4.21 11.5,4.0699 17.44,3.34 2.81,7.09 4.19,14.65 6.77,21.83 1.92,5.66 4.11,11.96 9.94,14.7 3.58,0.04 6.99,-1.44 10.42,-2.36 4.52,-1.46 9.41,-1.42 13.83,-3.23 5.22,-2.22 9.86,-5.52 14.86,-8.15 6.57,-3.41 13,-7.52 17.73,-13.3 1.43,-1.57 0.35,-3.78 -0.06,-5.52 -2.41,-7.18 -4.57,-14.44 -7.55,-21.4 -1.49,-3.5 -2.6,-7.39 -5.74,-9.82 5.61,-5.02 2.91,-13.04 1.93,-19.4 -4.89,-23.97 -8.77,-48.38 -17.78,-71.2401 -2.4,-4.43 -4.64,-9.2 -8.47,-12.58 -5.04,-2.01 -8.51,2.84 -11.64,5.9 -2.27,-5.02 -3.84,-10.31 -5.68,-15.48 -1.27,-3.15 -2.75,-6.51 -5.57,-8.56 -3.72,-1.28 -7.57,0.11 -10.83,1.93 -1.59,-3.45 -2.71,-7.78 -6.44,-9.54 -4.48,-1.21 -8.29,2.05 -11.55,4.62 -0.5099,-4.17 1.57,-10.09 -2.55,-12.88 -5.06,-1.08 -10.24,-0.56 -15.36,-0.64 -26.34,-0.03 -52.67,0 -79,-0.01 C 584.21,517.74 580.19,516.95 576.65,518.68 Z"
     id="path9295" />
  <path
     style="fill:#dadada;stroke:#dadada;stroke-width:0.30000001"
     inkscape:connector-curvature="0"
     d="m 625.14,440.72 c 0.91,0 1.82,-0.03 2.75,-0.06 5.43,5.77 9.43,12.81 15.54,17.95 8.25,7.02 16.79,14.04 26.9,18.22 -9.55,9.98 -21.55,17.03 -32.96,24.63 -2.28,1.34 -4.56,3.2 -7.31,3.28 -3.34,-0.84 -6.14,-2.99 -9.09,-4.66 -12.6,-7.72 -26.64,-13.6 -36.95,-24.52 11.22,-2.38 21.28,-9.19 28.7,-17.82 4.59,-5.32 9.5,-10.54 12.42,-17.02 z"
     id="path9297" />
  <path
     style="fill:#182727;stroke:#182727;stroke-width:0.30000001"
     inkscape:connector-curvature="0"
     d="m 576.65,518.68 c 3.54,-1.73 7.56,-0.94 11.35,-1.07 26.33,0.01 52.66,-0.02 79,0.01 5.12,0.08 10.3,-0.44 15.36,0.64 -8.41,1.15 -16.9,0.54 -25.36,0.65 -26.78,0.02 -53.58,0.26 -80.35,-0.23 z"
     id="path9299" />
  <path
     sodipodi:nodetypes="cccccccccccccccccccccccccccccccccccccccc"
     style="fill:#303030;stroke:#1d272b;stroke-width:1.39464569;stroke-miterlimit:4;stroke-dasharray:none;stroke-opacity:1"
     inkscape:connector-curvature="0"
     d="m 680.92812,520.22091 c 4.06566,2.7566 2.01309,8.60573 2.51636,12.72581 -0.0395,2.67756 -0.12818,5.365 -0.29604,8.05244 -0.35525,-0.58293 0.42926,9.3898 0.074,8.81674 -0.39472,28.01063 -0.63403,44.89253 -0.93007,72.90316 -0.0296,3.42847 -0.28864,7.56986 0.2245,10.94892 0.0691,12.08359 0.01,23.41474 0.0296,35.49834 0.0395,3.42846 -0.22697,6.85692 -0.69077,10.26562 -2.05257,0.36557 -4.115,0.68174 -6.18731,0.71139 -26.3282,-0.0198 -52.66618,-0.0692 -78.9942,0.0198 -6.2169,-0.0395 -13.21339,1.6006 -18.75927,-2.02546 -3.09858,-1.89702 -1.71705,-5.99734 -1.98339,-8.97131 6.48335,-0.45449 13.01603,-0.8003 19.36123,-2.34163 8.39776,-2.03534 17.67378,-0.85958 25.43011,-5.23655 2.14138,-1.18564 4.41104,-2.21329 6.31559,-3.79404 0.64143,-3.15181 0.0493,-7.4201 -3.25648,-8.84286 -3.16766,-0.85958 -6.54255,-0.36557 -9.71021,-1.24492 -4.52946,-1.19551 -8.94051,-2.81588 -13.4601,-4.07068 -4.83537,-1.5018 -10.03587,-2.58863 -14.08179,-5.82937 -2.69399,-2.14402 -5.31891,-4.36709 -7.97343,-6.55063 1.3618,-2.01558 2.21045,-5.09823 4.94392,-5.57249 8.72341,-0.079 17.68365,0.50451 26.43666,0.17785 5.93073,0.23712 13.51519,-2.21215 17.86703,-6.05559 1.18417,-4.16948 -2.06161,-7.32182 -4.80495,-9.75237 1.56903,-0.97815 1.27628,-2.05561 2.65781,-3.30053 0.49341,-3.2605 2.14632,-9.08309 -1.47528,-10.59478 -7.56884,-5.27608 -17.40817,-3.65726 -25.68751,-6.76955 -6.04915,-2.27246 -12.51193,-1.7067 -17.9986,-5.31301 -2.19072,-1.22516 -4.44558,-3.97969 -2.11671,-5.41233 4.3025,-2.7566 9.70035,-2.7072 14.56533,-1.81797 8.41749,1.52156 16.82512,3.44822 25.42024,3.64582 4.65775,0.58294 10.026,-0.10868 13.4305,-3.61618 1.48021,-2.86529 1.51969,-6.6198 0.58222,-9.63329 -7.31227,-8.73418 -18.64086,-13.26923 -29.76222,-14.54379 -9.22668,-0.72126 -17.09732,-0.74728 -26.15624,-2.51586 0.31578,-9.28747 1.05095,-18.34718 1.85027,-27.60501 l 1.52133,-2.68327 c 26.41692,0.48413 49.64553,0.98958 76.07242,0.96982 8.34832,-0.10869 16.72635,0.49401 25.02543,-0.64222 z"
     id="path9301" />
  <path
     style="fill:#f2c5b2;stroke:#f2c5b2;stroke-width:0.30000001"
     inkscape:connector-curvature="0"
     d="m 684.91,531.14 c 3.26,-2.57 7.07,-5.83 11.55,-4.62 3.73,1.76 4.85,6.09 6.44,9.54 3.2599,-1.82 7.11,-3.21 10.83,-1.93 2.82,2.05 4.3,5.41 5.57,8.56 1.84,5.17 3.41,10.46 5.68,15.48 3.13,-3.06 6.6,-7.91 11.64,-5.9 3.83,3.38 6.07,8.15 8.47,12.58 9.0099,22.86 12.89,47.27 17.78,71.2401 0.98,6.36 3.68,14.3799 -1.93,19.4 -3.84,3.42 -8.41,5.86 -12.58,8.84 -5.69,4.01 -11.95,7.16 -18.51,9.47 -6.12,2.15 -12.66,2.87 -18.64,5.43 -3.4,1.42 -6.86,2.77 -10.47,3.51 -5.94,0.73 -12.67,0.87 -17.44,-3.34 0.47,-3.45 0.74,-6.92 0.7,-10.39 -0.02,-12.23 0.04,-24.45 -0.03,-36.68 0.4301,-14.44 0.04,-28.9 0.21,-43.34 0.67,-16.56 -0.07,-33.14 0.43,-49.7 0.17,-2.7201 0.26,-5.4401 0.3,-8.1501 z"
     id="path9303" />
  <path
     style="fill:#f2c5b2;stroke:#f2c5b2;stroke-width:0.30000001"
     inkscape:connector-curvature="0"
     d="m 531.76,554.76 c 3.87,-7.14 12.68,-9.34 20.2,-9.69 7.77,0.23 15.65,0.02 23.28,1.76 9.18,1.79 18.41,3.57 27.76,4.3 11.27,1.29 22.75,5.88 30.16,14.72 0.95,3.05 0.91,6.85 -0.59,9.75 -3.45,3.55 -8.89,4.25 -13.61,3.66 -8.71,-0.2 -17.23,-2.15 -25.76,-3.69 -4.93,-0.9 -10.4,-0.95 -14.76,1.84 -2.36,1.45 -1.58,5.2401 0.64,6.48 5.56,3.65 12.36,4.33 18.49,6.63 8.39,3.15 18.11,0.76 25.78,6.1 3.67,1.53 3.5,5.92 3,9.22 -1.4,1.2599 -3.11,2.1 -4.7,3.09 2.78,2.46 6.3199,5.4 5.12,9.62 -4.41,3.89 -10.34,6.87 -16.35,6.63 -5.48,-0.59 -10.98,-0.33 -16.47,-0.43 -3.44,-0.02 -6.94,-0.63 -10.32,0.25 -2.77,0.48 -3.63,3.6 -5.01,5.64 2.69,2.21 5.35,4.46 8.08,6.63 4.1,3.28 9.37,4.38 14.27,5.9 4.58,1.27 9.05,2.91 13.64,4.12 3.21,0.89 6.63,0.39 9.84,1.26 3.35,1.44 3.95,5.76 3.3,8.95 -1.93,1.6 -4.23,2.64 -6.4,3.84 -7.86,4.43 -17.2599,3.24 -25.77,5.3 -6.43,1.56 -13.05,1.91 -19.62,2.37 -9.53,1.36 -19.38,1.06 -28.62,4.04 -0.8,4.65 -0.64,10.08 -4.09,13.74 -7.69,4.97 -17.35,5.06 -25.97,2.91 -5.68,-1.69 -10.54,-5.25 -15.34,-8.6 -6.52,-4.62 -11.5,-11.43 -13.61,-19.16 0.59,-5.96 3.74,-11.21 5.99,-16.65 4.84,-10.72 7.68,-22.17 11.71,-33.2 2.02,-7.85 6.27,-14.86 8.34,-22.6801 1.8,-6.72 5.07,-12.8799 7.65,-19.31 2.26,-5.6899 6.54,-10.1899 9.74,-15.3399 z"
     id="path9307" />
  <path
     style="fill:#ffffff;stroke:#ffffff;stroke-width:0.30000001"
     inkscape:connector-curvature="0"
     d="m 748.36,664.33 c 4.17,-2.98 8.74,-5.42 12.58,-8.84 3.14,2.43 4.25,6.32 5.74,9.82 2.98,6.96 5.14,14.22 7.55,21.4 0.41,1.74 1.49,3.95 0.06,5.52 -4.73,5.78 -11.16,9.89 -17.73,13.3 -5,2.6299 -9.64,5.93 -14.86,8.15 -4.42,1.81 -9.31,1.77 -13.83,3.23 -3.43,0.92 -6.84,2.4 -10.42,2.36 -5.83,-2.74 -8.02,-9.04 -9.94,-14.7 -2.58,-7.18 -3.96,-14.74 -6.77,-21.83 3.61,-0.74 7.07,-2.09 10.47,-3.51 5.98,-2.56 12.52,-3.28 18.64,-5.43 6.56,-2.31 12.82,-5.46 18.51,-9.47 z"
     id="path9311" />
  <path
     style="fill:#ffffff;stroke:#ffffff;stroke-width:0.30000001"
     inkscape:connector-curvature="0"
     d="m 488.33,661.94 c 2.11,7.73 7.09,14.54 13.61,19.16 4.8,3.35 9.66,6.91 15.34,8.6 8.62,2.15 18.28,2.06 25.97,-2.91 0.24,1.57 0.49,3.18 0.24,4.78 -1.49,8.66 -2.25,17.44 -3.99,26.05 -0.26,2.12 -2.61,2.73 -4.11,3.81 -3.97,1.97 -7.75,4.92 -12.36,4.98 -6.4301,0.09 -13.21,0.61 -19.18,-2.2599 -5.75,-2.7 -11.6,-5.42 -16.63,-9.36 -3.97,-3.06 -6.75,-7.28 -10.03,-10.99 -3.22,-3.64 -4.97,-8.79 -3.93,-13.6 1.31,-4.05 3.56,-7.71 5.33,-11.56 2.95,-5.7201 5.13,-12.0401 9.74,-16.7001 z"
     id="path9313" />
  <path
     style="fill:#f29c9f;stroke:#f29c9f;stroke-width:0.30000001"
     inkscape:connector-curvature="0"
     d="m 774.15,919.87 c 0.67,5.02 0.79,10.12 1.92,15.09 0.16,2.36 1.66,5.57 -0.85,7.19 -5.6899,4.46 -11.17,9.49 -18.06,12.05 -7.85,2.91 -15.55,6.35 -23.72,8.33 -14.21,3.59 -28.91,4.36 -43.35,6.67 -12.22,1.02 -24.4301,2.23 -36.64,3.33 -27.06,3.03 -54.47,1.08 -81.21,-3.7401 -17.12,-2.37 -34.01,-5.98 -50.97,-9.24 -5.09,-0.95 -10.07,-2.34 -15.1,-3.49 -9.31,-2.15 -17.65,-6.96 -26.17,-11.09 -1.69,-0.9 -3.49,-1.7599 -4.75,-3.24 -0.68,-5.33 0.05,-10.8 1.39,-15.97 0.32,-1.82 2.12,-2.62 3.39,-3.7 9.7,7.13 21.61,9.91 32.65,14.25 6.99,2.87 14.58,3.67 21.64,6.3 9.08,2.83 18.63,3.59 27.98,5.1 14.23,1.63 28.39,3.95 42.66,5.16 32.62,1.9 65.28,-1.37 97.46,-6.53 21.7,-4.23 43.43,-10.1801 62.72,-21.27 2.79,-1.64 5.96,-2.4 9.15,-2.87 -0.04,-0.5799 -0.1,-1.7499 -0.14,-2.3299 z"
     id="path9315" />
</g>

<g
   id="g9516">
  <path
     style="fill:#2f2f2f;stroke:#2f2f2f;stroke-width:13.5269289;stroke-miterlimit:4;stroke-dasharray:none"
     d="m 1386.5282,37.090336 c -0.5848,-0.0016 -1.1696,0.0059 -1.7559,0.02344 -5.99,0.07 -11.9904,-0.14977 -17.9804,0.24023 -10.41,1.02 -20.9399,1.27039 -31.1699,3.65039 -5,0.89 -9.9594,1.98016 -14.9395,2.91016 -10.14,0.92 -19.4312,5.27929 -29.0312,8.27929 -7.69,3.09 -15.5089,6.53914 -21.5489,12.36914 -3.83,3.54001 -8.2706,6.37063 -11.8906,10.14063 -17.16,17.16 -29.7793,38.329694 -39.5293,60.429694 -4.43,11.73 -10.0294,22.99133 -14.1094,34.86133 -3.81,10.15 -6.3811,20.71882 -8.7011,31.29882 -3.32,19.77 -4.4892,40.07024 -1.8692,59.99024 0.78,4.94 1.6797,10.05008 4.4297,14.33008 2.93,4.28 5.7296,8.76906 9.8496,12.03906 0,-1.16875 0.046,-2.3349 0.125,-3.5 -0.079,1.1651 -0.1212,2.33125 -0.125,3.5 0,4.57 0.2299,9.41094 2.5899,13.46094 2.92,5.56 8.0912,9.36953 13.0312,13.01953 7.48,5.36 16.6999,7.21953 24.8399,11.26953 4.77,2.25 3.8198,8.52055 6.5898,12.31055 7.25,9.91 18.0287,16.14031 27.7187,23.32031 4.26,3.22 8.981,5.73922 13.711,8.19922 11.49,5.82 22.8905,11.81117 34.0605,18.20117 -0.14,7.85 -1.5701,15.75023 -4.6601,22.99023 0.6,0.85 1.2534,1.65055 1.9492,2.41211 -0.6958,-0.76156 -1.3492,-1.56211 -1.9492,-2.41211 -1.67,0.16 -3.4312,0.31907 -4.7012,1.53907 -4.91,4.06 -9.409,8.60125 -14.209,12.78125 -2.83,2.68 -6.1301,5.04 -8.0801,8.5 -5.67,0.33 -11.3612,1.28851 -16.5312,3.72851 -7.98,0.95 -15.4383,4.1811 -22.7383,7.3711 -9.96,4.22 -19.0211,10.19908 -28.1211,15.95898 -5.48,3.34 -9.7689,8.19008 -14.3789,12.58008 -6.77,7.42 -12.8009,15.56984 -17.7109,24.33984 -4.39,9.02 -9.2007,18.04125 -10.9707,28.03125 -5.41,19.91 -6.7485,40.56875 -9.2285,60.96875 -1.06,6.78 -0.1815,13.80016 -2.2715,20.41016 -3.52,17.29 -2.4386,35.07133 -2.5586,52.61133 -0.01,18.87 5.4089,37.25929 12.6289,54.52929 6.36,10.5801 14.9712,19.59039 24.0312,27.90039 3.75,3.73 8.5092,6.09883 13.1192,8.54883 -0.82,5.75 1.3804,11.32102 1.4804,17.04102 0.24,14.3 0.6987,28.59039 0.3887,42.90039 -0.29,8.13 -2.0401,16.10836 -3.5801,24.06836 -0.63,5.1601 -5.4993,8.24109 -6.8593,13.12109 -3.07,10.19 -6.0396,20.42984 -8.2696,30.83984 -0.59,3.83 -1.9106,8.25922 0.6094,11.69922 3.87,5.93 8.0608,11.71149 13.3008,16.52149 0.03,5.67 4.159,10.1982 4.289,15.9082 -1.27,1.08 -3.0686,1.88117 -3.3886,3.70117 -1.34,5.17 -2.0707,10.64071 -1.3907,15.97071 1.26,1.4801 3.06,2.33828 4.75,3.23828 8.52,4.13 16.86,8.93984 26.17,11.08984 5.03,1.15 10.0096,2.54023 15.0996,3.49023 16.96,3.26001 33.8507,6.87027 50.9707,9.24024 26.74,4.8201 54.149,6.77023 81.209,3.74023 12.2099,-1.1 24.4206,-2.31007 36.6406,-3.33007 14.44,-2.30997 29.1396,-3.07993 43.3496,-6.66993 8.17,-1.98 15.8707,-5.42007 23.7207,-8.33007 6.89,-2.56 12.3707,-7.58883 18.0606,-12.04883 2.51,-1.62 1.0096,-4.83141 0.8496,-7.19141 -1.13,-4.97 -1.25,-10.06984 -1.92,-15.08984 0.1,-6.68 -2.1104,-14.46985 2.5996,-20.08985 3.33,-4.67 6.4593,-9.4707 10.0293,-13.9707 2.03,-2.96 4.73,-6.00906 4.67,-9.78906 -2.49,-14.66 -11.9394,-26.69914 -17.1094,-40.36914 -2.45,-17.12 -4.5308,-34.34992 -4.5508,-51.66992 -0.65,-9.31 -0.5091,-18.64094 -0.6191,-27.96094 4.56,0 9.2604,0.34906 13.6504,-1.21094 5.36,-1.88 10.4599,-4.55914 15.0898,-7.86914 6.17,-4.11 10.5991,-10.1493 15.2891,-15.7793 2.57,-2.7699 1.8116,-6.97976 3.9316,-10.00976 4.52,-7.06 8.9689,-14.24039 11.8789,-22.15039 2.93,-6.78 2.5506,-14.3611 4.6406,-21.3711 1.75,-6.04 1.2292,-12.40914 1.3692,-18.61914 0.25,-11.17 -2.9903,-21.97953 -4.0703,-33.01953 -1.25,-10.82 -3.5685,-21.49109 -5.8985,-32.12109 -3.29,-10.42 -5.4518,-21.14016 -8.3418,-31.66016 -7.43,-21.31 -13.4286,-43.38953 -24.8886,-63.01953 -6.01,-12.19 -12.5203,-24.26977 -21.2403,-34.75977 -6.19,-7.36 -14.1597,-12.96937 -22.5097,-17.60937 -6.18,-2.96 -12.8103,-4.91133 -19.4903,-6.36133 -4.18,-0.98 -8.2801,-2.3289 -12.5801,-2.6289 -5.53,-0.65 -10.8408,-2.47094 -16.3808,-2.96094 -8.53,-8.29 -16.9602,-16.70031 -25.4102,-25.07031 -1.47,-1.68 -4.1883,-2.54008 -5.8183,-0.58008 -3.08,-7.02 -5.3799,-14.34922 -6.4199,-21.94922 16.89,-6.44 31.5397,-17.18078 47.0097,-26.30078 10.7,-7.81 21.0991,-16.12899 30.2891,-25.70899 3.42,-3.86 8.8304,-4.04937 13.4004,-5.60937 6.39,-1.94 11.441,-6.50125 16.791,-10.28125 2.95,-2.33 6.1693,-4.44992 8.5293,-7.41992 1.79,-2.91 2.2995,-6.37907 3.5195,-9.53907 0.83,-2.67 2.2295,-5.21125 2.5195,-8.03125 1.88,-2.27 4.0615,-4.31851 5.7715,-6.72851 6.3,-13.99 7.3089,-29.52031 9.0489,-44.57031 0.04,-7.39001 1.1906,-14.74086 0.8906,-22.13086 -0.69,-12.52 -1.9806,-25.09899 -5.3906,-37.20899 -0.8,-4.31 -2.7897,-8.36125 -2.9297,-12.78125 -0.2,-4.21 -2.2207,-7.99922 -3.4707,-11.94922 -3.33,-9.98 -6.8091,-19.96109 -11.5391,-29.37109 -7.7,-16.32 -16.6396,-32.10844 -27.3496,-46.648444 -4.38,-4.95 -9.2998,-9.38047 -13.7598,-14.23047 -3.49,-5.72 -9.9804,-8.20109 -15.4004,-11.62109 -7.27,-4.36 -15.2398,-7.27969 -23.3398,-9.67969 -9.56,-3.76 -19.8208,-4.88 -29.8008,-7 -8.6156,-1.51875 -17.2317,-3.6082 -26.0039,-3.63281 z m 0.7031,174.683594 c 10e-4,0.001 0,0.003 0,0.004 0.327,0.81366 0.6633,1.6278 1.0157,2.4375 -0.353,-0.81104 -0.6921,-1.62641 -1.0196,-2.44141 z m -124.3281,25.0293 c 0.4775,2.92453 1.0324,5.83547 1.6699,8.73047 0.4075,2.55 0.8815,5.09015 1.4278,7.61328 -0.5463,-2.52313 -1.0203,-5.06328 -1.4278,-7.61328 -0.6375,-2.895 -1.1924,-5.80594 -1.6699,-8.73047 z m 166.3594,15.64062 c 0.2103,0.28907 0.3404,0.6318 0.4316,0.99805 -0.091,-0.36625 -0.2213,-0.70898 -0.4316,-0.99805 z m -211.502,5.04688 c 0,0 0,0 0,0 -0.3161,0.34633 -0.6185,0.71047 -0.9062,1.08203 0.2877,-0.37156 0.5881,-0.7357 0.9043,-1.08203 z m -2.4785,3.33398 c -0.5637,1.0225 -1.0948,2.06178 -1.5937,3.11719 0.4989,-1.05541 1.03,-2.09469 1.5937,-3.11719 z m 225.3008,265.70508 c -0.5393,-0.0216 -1.0669,0.0157 -1.5859,0.10352 0.5184,-0.0876 1.0473,-0.12513 1.5859,-0.10352 z m -119.5898,2.9336 c 0,3.52412 0.077,7.05101 0.098,10.57812 -0.02,-3.52711 -0.1,-7.054 -0.098,-10.57812 z m 128.9277,6.20312 c -0.4245,0.20969 -0.8406,0.4307 -1.2481,0.6582 0,0 0,-0.002 0,-0.002 0.4075,-0.2275 0.8236,-0.44656 1.2481,-0.65625 z m 28.168,16.72852 c -0.5224,0.17909 -1.026,0.42274 -1.5137,0.71484 0.4877,-0.2921 0.9913,-0.53575 1.5137,-0.71484 z m -105.4864,98.49023 c 0.2222,0.35605 0.4087,0.73766 0.5625,1.13672 -0.1538,-0.39906 -0.3403,-0.78067 -0.5625,-1.13672 z m -50.8711,18.38867 c 0,0 0,0 0,0 0.034,0.37625 0.039,0.77049 0.033,1.17578 0.01,-0.40529 -10e-4,-0.79953 -0.035,-1.17578 z m 126.6621,19.12305 c 0.5649,1.81797 1.0805,3.65141 1.5899,5.48828 0.764,2.75531 1.5124,5.51709 2.3828,8.24023 -0.8704,-2.72314 -1.6188,-5.48492 -2.3828,-8.24023 -0.5094,-1.83687 -1.025,-3.67031 -1.5899,-5.48828 z m 8.9844,25.84766 c 0.4113,0.63138 0.8563,1.23533 1.3418,1.80468 -0.4855,-0.56935 -0.9305,-1.1733 -1.3418,-1.80468 z"
     id="path9484"
     inkscape:connector-curvature="0" />
  <path
     id="path9387"
     d="m 1336.9817,40.74 c 10.23,-2.38 20.76,-2.63 31.17,-3.65 5.99,-0.39 11.99,-0.17 17.98,-0.24 9.38,-0.28 18.57,1.99 27.76,3.61 9.98,2.12 20.24,3.24 29.8,7 8.1,2.4 16.07,5.32 23.34,9.68 5.42,3.42 11.91,5.9 15.4,11.62 4.46,4.85 9.38,9.28 13.76,14.23 10.71,14.54 19.65,30.33 27.35,46.65 4.73,9.41 8.21,19.39 11.54,29.37 1.25,3.95 3.27,7.74 3.47,11.95 0.14,4.42 2.13,8.47 2.93,12.78 3.41,12.11 4.7,24.69 5.39,37.21 0.3,7.39 -0.85,14.74 -0.89,22.13 -1.74,15.05 -2.75,30.58 -9.05,44.57 -1.71,2.41 -3.89,4.46 -5.77,6.73 0.03,-6.89 0.48,-13.97 -1.84,-20.59 -1.49,-6.18 -3.17,-13.58 -9.69,-16.32 -4.01,-0.66 -8.04,1.37 -10.48,4.5 -6.08,8.05 -13.76,14.93 -22.43,20.09 -0.72,-3.33 -0.66,-6.74 -0.42,-10.11 0.51,-8.83 -0.48,-17.63 -1.53,-26.38 -7.07,-0.12 -14.25,0.01 -21.12,-1.93 -18.35,-4.08 -37.38,-7.46 -53.62,-17.51 -7.2,-4.81 -15.17,-8.54 -21.44,-14.62 2.62,6.52 5.97,13.03 11.41,17.66 9.1,8.41 18.88,16.24 29.71,22.33 1.64,0.62 1.36,2.54 1.74,3.94 -9.35,0.37 -18.68,2.23 -28.06,1.26 -5.41,-0.59 -10.76,-1.84 -16.23,-1.62 -17.02,0.21 -33.94,-2.95 -50.1201,-8.06 -16.25,-6.89 -31,-17.09 -43.86,-29.13 -7.13,-5.82 -12.9,-13.05 -19.18,-19.72 -4.26,-3.85 -7.09,-8.92 -10.88,-13.19 -1.89,8.21 -1.11,16.67 -1.25,25.01 0.29,11.85 1.51,23.7 4.06,35.28 1.63,10.2 4.33,20.23 8.42,29.73 -9.23,0.36 -18.97,-1.06 -26.59,-6.64 -4.21,-3.24 -9.49,-4.89 -13.21,-8.77 -2.55,-2.54 -5.41,-5.66 -9.41,-5.1 -3.98,-0.47 -6.59,3.14 -8.5,6.07 -4.51,8.18 -6.97,17.48 -7,26.83 -4.12,-3.27 -6.92,-7.76 -9.85,-12.04 -2.75,-4.28 -3.65,-9.39 -4.43,-14.33 -2.62,-19.92 -1.45,-40.22 1.87,-59.99 2.32,-10.58 4.89,-21.15 8.7,-31.3 4.08,-11.87 9.68,-23.13 14.11,-34.86 9.75,-22.1 22.37,-43.27 39.53,-60.43 3.62,-3.77 8.06,-6.6 11.89,-10.14 6.04,-5.83 13.86,-9.28 21.55,-12.37 9.6,-3 18.89,-7.36 29.03,-8.28 4.9801,-0.93 9.9401,-2.02 14.9401,-2.91 z"
     inkscape:connector-curvature="0"
     style="fill:#2f2f2f;stroke:#2f2f2f;stroke-width:0.30000001" />
  <path
     id="path9389"
     d="m 1263.1217,184.98 c 3.79,4.27 6.62,9.34 10.88,13.19 6.28,6.67 12.05,13.9 19.18,19.72 12.86,12.04 27.61,22.24 43.86,29.13 16.1801,5.11 33.1,8.27 50.1201,8.06 5.47,-0.22 10.8199,1.03 16.23,1.62 9.38,0.97 18.71,-0.89 28.06,-1.26 -0.38,-1.4 -0.1,-3.32 -1.74,-3.94 -10.83,-6.09 -20.61,-13.92 -29.71,-22.33 -5.44,-4.63 -8.79,-11.14 -11.41,-17.66 6.27,6.08 14.24,9.81 21.44,14.62 16.24,10.05 35.27,13.43 53.62,17.51 6.87,1.94 14.05,1.81 21.12,1.93 1.05,8.75 2.04,17.55 1.53,26.38 -0.24,3.37 -0.3,6.78 0.42,10.11 8.67,-5.16 16.35,-12.04 22.43,-20.09 2.44,-3.13 6.47,-5.16 10.48,-4.5 6.52,2.74 8.2,10.14 9.69,16.32 2.32,6.62 1.87,13.7 1.84,20.59 -0.29,2.82 -1.69,5.36 -2.52,8.03 -1.22,3.16 -1.73,6.63 -3.52,9.54 -2.36,2.97 -5.58,5.09 -8.53,7.42 -5.35,3.78 -10.4,8.34 -16.79,10.28 -4.57,1.56 -9.98,1.75 -13.4,5.61 -9.19,9.58 -19.59,17.9 -30.29,25.71 -15.47,9.12 -30.12,19.86 -47.01,26.3 1.04,7.6 3.34,14.93 6.42,21.95 -6.52,6 -14.01,10.78 -20.92,16.29 -6.45,5.15 -13.53,9.51 -19.58,15.15 -0.93,0.03 -1.84,0.06 -2.75,0.06 -13.53,-4.28 -24.87,-13.28 -35.77,-22.07 -3.31,-2.48 -6.58,-5.09 -8.98,-8.49 3.09,-7.24 4.52,-15.14 4.66,-22.99 -11.17,-6.39 -22.57,-12.38 -34.06,-18.2 -4.73,-2.46 -9.45,-4.98 -13.71,-8.2 -9.69,-7.18 -20.47,-13.41 -27.72,-23.32 -2.77,-3.79 -1.82,-10.06 -6.59,-12.31 -8.14,-4.05 -17.36,-5.91 -24.84,-11.27 -4.94,-3.65 -10.11,-7.46 -13.03,-13.02 -2.36,-4.05 -2.59,-8.89 -2.59,-13.46 0.03,-9.35 2.49,-18.65 7,-26.83 1.91,-2.93 4.52,-6.54 8.5,-6.07 4,-0.56 6.86,2.56 9.41,5.1 3.72,3.88 9,5.53 13.21,8.77 7.62,5.58 17.36,7 26.59,6.64 -4.09,-9.5 -6.79,-19.53 -8.42,-29.73 -2.55,-11.58 -3.77,-23.43 -4.06,-35.28 0.1399,-8.34 -0.6401,-16.8 1.2499,-25.01 z"
     inkscape:connector-curvature="0"
     style="fill:#f2c5b2;stroke:#f2c5b2;stroke-width:0.30000001" />
  <path
     id="path9391"
     d="m 1415.5217,409.22 c 1.63,-1.96 4.35,-1.1 5.82,0.58 8.45,8.37 16.88,16.78 25.41,25.07 -2.22,8.37 -7.22,15.56 -12.18,22.52 -5.26,6.85 -10.43,13.87 -17.11,19.44 -10.11,-4.18 -18.65,-11.2 -26.9,-18.22 -6.11,-5.14 -10.11,-12.18 -15.54,-17.95 6.05,-5.64 13.13,-10 19.58,-15.15 6.91,-5.51 14.4,-10.29 20.92,-16.29 z"
     inkscape:connector-curvature="0"
     style="fill:#ffffff;stroke:#ffffff;stroke-width:0.30000001" />
  <path
     id="path9393"
     d="m 1322.8217,411.7 c 1.27,-1.22 3.03,-1.38 4.7,-1.54 2.4,3.4 5.67,6.01 8.98,8.49 10.9,8.79 22.24,17.79 35.77,22.07 -2.92,6.48 -7.83,11.7 -12.42,17.02 -7.42,8.63 -17.48,15.44 -28.7,17.82 -8.03,-8.58 -16.27,-17.13 -22.39,-27.22 -3.08,-4.93 -6.47,-9.77 -8.23,-15.36 1.95,-3.46 5.25,-5.82 8.08,-8.5 4.8,-4.18 9.3,-8.72 14.21,-12.78 z"
     inkscape:connector-curvature="0"
     style="fill:#ffffff;stroke:#ffffff;stroke-width:0.30000001" />
  <path
     id="path9395"
     d="m 1284.0017,436.71 c 5.17,-2.44 10.86,-3.4 16.53,-3.73 1.7599,5.59 5.15,10.43 8.23,15.36 6.12,10.09 14.36,18.64 22.39,27.22 10.31,10.92 24.35,16.8 36.95,24.52 2.95,1.67 5.75,3.82 9.09,4.66 2.75,-0.08 5.03,-1.94 7.31,-3.28 11.41,-7.6 23.41,-14.65 32.96,-24.63 6.68,-5.57 11.85,-12.59 17.11,-19.44 4.96,-6.96 9.96,-14.15 12.18,-22.52 5.54,0.49 10.85,2.31 16.38,2.96 -2.85,10.75 -7.34,21.19 -14.16,30.04 -7.76,10.1 -16.35,19.63 -26.08,27.88 -7.28,6.19 -15.97,10.32 -24.45,14.58 -4.1,2 -8.28,3.84 -12.57,5.41 -4.7,1.79 -9.81,1.42 -14.74,1.49 -2.93,-0.05 -5.9,0.11 -8.77,-0.53 -2.51,-0.87 -4.39,-2.86 -6.47,-4.42 -4.5,-3.74 -10.06,-5.83 -14.81,-9.19 -7.2,-5.05 -14.78,-9.77 -20.69,-16.37 -5.21,-5.78 -10.33,-11.63 -15.57,-17.37 -8.84,-9.56 -14.17,-21.59 -20.82,-32.64 z"
     inkscape:connector-curvature="0"
     style="fill:#f29c9f;stroke:#f29c9f;stroke-width:0.30000001" />
  <path
     id="path9397"
     d="m 1261.2617,444.08 c 7.3,-3.19 14.76,-6.42 22.74,-7.37 6.65,11.05 11.98,23.08 20.82,32.64 5.24,5.74 10.36,11.59 15.57,17.37 5.91,6.6 13.49,11.32 20.69,16.37 4.75,3.36 10.31,5.45 14.81,9.19 2.08,1.56 3.96,3.55 6.47,4.42 2.87,0.64 5.84,0.48 8.77,0.53 4.93,-0.07 10.04,0.3 14.74,-1.49 4.29,-1.57 8.47,-3.41 12.57,-5.41 8.48,-4.26 17.17,-8.39 24.45,-14.58 9.73,-8.25 18.32,-17.78 26.08,-27.88 6.8199,-8.85 11.31,-19.29 14.16,-30.04 4.3,0.3 8.4,1.65 12.58,2.63 6.68,1.45 13.31,3.4 19.49,6.36 8.35,4.64 16.32,10.25 22.51,17.61 8.72,10.49 15.23,22.57 21.24,34.76 11.46,19.63 17.46,41.71 24.89,63.02 2.89,10.52 5.05,21.24 8.34,31.66 2.33,10.63 4.65,21.3 5.9,32.12 1.08,11.04 4.32,21.85 4.07,33.02 -0.14,6.21 0.38,12.58 -1.37,18.62 -2.09,7.01 -1.71,14.59 -4.64,21.37 -2.91,7.91 -7.36,15.09 -11.88,22.15 -2.12,3.03 -1.36,7.24 -3.93,10.0099 -4.69,5.63 -9.12,11.67 -15.29,15.78 -4.6299,3.31 -9.73,5.99 -15.09,7.87 -4.39,1.56 -9.09,1.21 -13.65,1.21 0.11,9.32 -0.03,18.65 0.62,27.96 0.02,17.32 2.1,34.55 4.55,51.67 5.17,13.67 14.62,25.71 17.11,40.37 0.06,3.78 -2.64,6.83 -4.67,9.79 -3.57,4.5 -6.7,9.3 -10.03,13.97 -4.71,5.62 -2.5,13.41 -2.6,20.09 0.04,0.58 0.1,1.75 0.14,2.33 -3.19,0.47 -6.36,1.23 -9.15,2.87 -19.29,11.09 -41.02,17.04 -62.72,21.27 -32.18,5.16 -64.84,8.43 -97.46,6.53 -14.27,-1.21 -28.43,-3.53 -42.66,-5.16 -9.35,-1.51 -18.9,-2.27 -27.98,-5.1 -7.06,-2.63 -14.65,-3.43 -21.64,-6.3 -11.04,-4.34 -22.95,-7.12 -32.65,-14.25 -0.13,-5.71 -4.26,-10.24 -4.29,-15.91 -5.24,-4.81 -9.43,-10.59 -13.3,-16.52 -2.52,-3.44 -1.2,-7.87 -0.61,-11.7 2.23,-10.41 5.2,-20.65 8.27,-30.84 1.36,-4.88 6.23,-7.96 6.86,-13.1201 1.54,-7.96 3.29,-15.9399 3.58,-24.0699 0.31,-14.31 -0.15,-28.6 -0.39,-42.9 -0.1,-5.72 -2.3,-11.29 -1.48,-17.04 -4.61,-2.45 -9.37,-4.82 -13.12,-8.55 -9.06,-8.31 -17.67,-17.3199 -24.03,-27.9 -7.22,-17.27 -12.64,-35.66 -12.63,-54.53 0.12,-17.54 -0.96,-35.32 2.56,-52.61 2.09,-6.61 1.21,-13.63 2.27,-20.41 2.48,-20.4 3.82,-41.06 9.23,-60.97 1.77,-9.99 6.58,-19.01 10.97,-28.03 4.91,-8.77 10.94,-16.92 17.71,-24.34 4.61,-4.39 8.9,-9.24 14.38,-12.58 9.1,-5.7599 18.16,-11.7399 28.12,-15.9599 m 62.52,74.6 -1.04,-0.04 c -0.81,9.37 -0.05,18.79 -0.37,28.19 -7.63,-1.74 -15.51,-1.53 -23.28,-1.76 -7.52,0.35 -16.33,2.55 -20.2,9.69 -3.2,5.15 -7.48,9.65 -9.74,15.34 -2.58,6.4301 -5.85,12.59 -7.65,19.31 -2.07,7.82 -6.32,14.83 -8.34,22.6801 -4.03,11.03 -6.87,22.48 -11.71,33.2 -2.25,5.44 -5.4,10.69 -5.99,16.65 -4.61,4.66 -6.79,10.98 -9.74,16.7 -1.77,3.85 -4.02,7.51 -5.33,11.56 -1.04,4.81 0.71,9.96 3.93,13.6 3.28,3.71 6.06,7.93 10.03,10.99 5.03,3.94 10.88,6.66 16.63,9.36 5.97,2.87 12.75,2.35 19.18,2.2599 4.61,-0.06 8.39,-3.0099 12.36,-4.98 1.5,-1.08 3.85,-1.69 4.11,-3.81 1.74,-8.61 2.5,-17.39 3.99,-26.05 0.25,-1.6 0,-3.21 -0.24,-4.78 3.45,-3.66 3.29,-9.09 4.09,-13.74 9.24,-2.98 19.09,-2.68 28.62,-4.04 0.27,3.01 -1.13,7.16 2.0099,9.08 5.6201,3.67 12.71,2.0099 19.01,2.05 26.68,-0.09 53.37,-0.04 80.05,-0.02 2.1,-0.03 4.1899,-0.35 6.27,-0.72 4.77,4.21 11.5,4.0699 17.44,3.34 2.81,7.09 4.19,14.65 6.77,21.83 1.92,5.66 4.11,11.96 9.94,14.7 3.58,0.04 6.99,-1.44 10.42,-2.36 4.52,-1.46 9.41,-1.42 13.83,-3.23 5.22,-2.22 9.86,-5.52 14.86,-8.15 6.57,-3.41 13,-7.52 17.73,-13.3 1.43,-1.57 0.35,-3.78 -0.06,-5.52 -2.41,-7.18 -4.57,-14.44 -7.55,-21.4 -1.49,-3.5 -2.6,-7.39 -5.74,-9.82 5.61,-5.02 2.91,-13.04 1.93,-19.4 -4.89,-23.97 -8.77,-48.38 -17.78,-71.2401 -2.4,-4.43 -4.64,-9.2 -8.47,-12.58 -5.04,-2.01 -8.51,2.84 -11.64,5.9 -2.27,-5.02 -3.84,-10.31 -5.68,-15.48 -1.27,-3.15 -2.75,-6.51 -5.57,-8.56 -3.72,-1.28 -7.57,0.11 -10.83,1.93 -1.59,-3.45 -2.71,-7.78 -6.44,-9.54 -4.48,-1.21 -8.29,2.05 -11.55,4.62 -0.5099,-4.17 1.57,-10.09 -2.55,-12.88 -5.06,-1.08 -10.24,-0.56 -15.36,-0.64 -26.34,-0.03 -52.67,0 -79,-0.01 -3.7899,0.1301 -7.8099,-0.6599 -11.3499,1.0701 z"
     inkscape:connector-curvature="0"
     style="fill:#d96c72;stroke:#d96c72;stroke-width:0.30000001" />
  <path
     id="path9399"
     d="m 1372.2717,440.72 c 0.91,0 1.82,-0.03 2.75,-0.06 5.43,5.77 9.43,12.81 15.54,17.95 8.25,7.02 16.79,14.04 26.9,18.22 -9.55,9.98 -21.55,17.03 -32.96,24.63 -2.28,1.34 -4.56,3.2 -7.31,3.28 -3.34,-0.84 -6.14,-2.99 -9.09,-4.66 -12.6,-7.72 -26.64,-13.6 -36.95,-24.52 11.22,-2.38 21.28,-9.19 28.7,-17.82 4.59,-5.32 9.5,-10.54 12.42,-17.02 z"
     inkscape:connector-curvature="0"
     style="fill:#abceb1;fill-opacity:1;stroke:#dadada;stroke-width:0.30000001" />
  <path
     id="path9401"
     d="m 1323.7817,518.68 c 3.54,-1.73 7.56,-0.94 11.35,-1.07 26.33,0.01 52.66,-0.02 79,0.01 5.12,0.08 10.3,-0.44 15.36,0.64 -8.41,1.15 -16.9,0.54 -25.36,0.65 -26.78,0.02 -53.58,0.26 -80.35,-0.23 z"
     inkscape:connector-curvature="0"
     style="fill:#182727;stroke:#182727;stroke-width:0.30000001" />
  <path
     id="path9403"
     d="m 1429.4917,518.26 c 4.12,2.79 2.04,8.71 2.55,12.88 -0.04,2.71 -0.1299,5.43 -0.3,8.15 -0.36,-0.59 -1.07,-1.77 -1.43,-2.35 -0.4,28.35 0.11,56.71 -0.19,85.06 -0.03,3.47 0.46,6.91 0.98,10.33 0.07,12.23 0.01,24.45 0.03,36.68 0.04,3.47 -0.23,6.94 -0.7,10.39 -2.08,0.37 -4.17,0.69 -6.27,0.72 -26.6801,-0.02 -53.3701,-0.07 -80.05,0.02 -6.3,-0.04 -13.39,1.62 -19.01,-2.05 -3.14,-1.92 -1.74,-6.07 -2.0099,-9.08 6.57,-0.46 13.19,-0.81 19.62,-2.37 8.51,-2.06 17.91,-0.87 25.77,-5.3 2.17,-1.2 4.47,-2.2401 6.4,-3.84 0.65,-3.19 0.05,-7.51 -3.3,-8.95 -3.21,-0.87 -6.63,-0.37 -9.84,-1.26 -4.59,-1.21 -9.06,-2.85 -13.64,-4.12 -4.9,-1.52 -10.17,-2.62 -14.27,-5.9 -2.73,-2.17 -5.39,-4.42 -8.08,-6.63 1.38,-2.04 2.24,-5.16 5.01,-5.64 8.84,1.51 17.92,1.57 26.79,0.18 6.01,0.24 11.94,-2.74 16.35,-6.63 1.2,-4.22 -2.34,-7.16 -5.12,-9.62 1.59,-0.99 3.3,-1.83 4.7,-3.09 0.5,-3.3 0.67,-7.69 -3,-9.22 -7.67,-5.34 -17.39,-2.95 -25.78,-6.1 -6.13,-2.3 -12.93,-2.98 -18.49,-6.63 -2.22,-1.24 -3,-5.03 -0.64,-6.48 4.36,-2.79 9.83,-2.74 14.76,-1.84 8.53,1.54 17.05,3.49 25.76,3.69 4.72,0.59 10.16,-0.11 13.61,-3.66 1.5,-2.9 1.54,-6.7 0.59,-9.75 -7.41,-8.84 -18.89,-13.43 -30.16,-14.72 -9.35,-0.73 -18.58,-2.51 -27.76,-4.3 0.32,-9.4 -0.44,-18.82 0.37,-28.19 l 1.04,0.04 c 26.77,0.49 53.5699,0.25 80.35,0.23 8.4599,-0.11 16.9499,0.5 25.3599,-0.65 z"
     inkscape:connector-curvature="0"
     style="fill:#303030;stroke:#303030;stroke-width:0.30000001" />
  <path
     id="path9405"
     d="m 1432.0417,531.14 c 3.26,-2.57 7.07,-5.83 11.55,-4.62 3.73,1.76 4.85,6.09 6.44,9.54 3.2599,-1.82 7.11,-3.21 10.83,-1.93 2.82,2.05 4.3,5.41 5.57,8.56 1.84,5.17 3.41,10.46 5.68,15.48 3.13,-3.06 6.6,-7.91 11.64,-5.9 3.83,3.38 6.07,8.15 8.47,12.58 9.0099,22.86 12.89,47.27 17.78,71.2401 0.98,6.36 3.68,14.3799 -1.93,19.4 -3.84,3.42 -8.41,5.86 -12.58,8.84 -5.69,4.01 -11.95,7.16 -18.51,9.47 -6.12,2.15 -12.66,2.87 -18.64,5.43 -3.4,1.42 -6.86,2.77 -10.47,3.51 -5.94,0.73 -12.67,0.87 -17.44,-3.34 0.47,-3.45 0.74,-6.92 0.7,-10.39 -0.02,-12.23 0.04,-24.45 -0.03,-36.68 0.4301,-14.44 0.04,-28.9 0.21,-43.34 0.67,-16.56 -0.07,-33.14 0.43,-49.7 0.17,-2.7201 0.26,-5.4401 0.3,-8.1501 z"
     inkscape:connector-curvature="0"
     style="fill:#f2c5b2;stroke:#f2c5b2;stroke-width:0.30000001" />
  <path
     id="path9407"
     d="m 1430.3117,536.94 c 0.36,0.58 1.07,1.76 1.43,2.35 -0.5,16.56 0.24,33.14 -0.43,49.7 -0.17,14.44 0.22,28.9 -0.21,43.34 -0.52,-3.42 -1.0099,-6.86 -0.98,-10.33 0.3,-28.35 -0.21,-56.71 0.19,-85.06 z"
     inkscape:connector-curvature="0"
     style="fill:#131a1d;stroke:#131a1d;stroke-width:0.30000001" />
  <path
     id="path9409"
     d="m 1278.8917,554.76 c 3.87,-7.14 12.68,-9.34 20.2,-9.69 7.77,0.23 15.65,0.02 23.28,1.76 9.18,1.79 18.41,3.57 27.76,4.3 11.27,1.29 22.75,5.88 30.16,14.72 0.95,3.05 0.91,6.85 -0.59,9.75 -3.45,3.55 -8.89,4.25 -13.61,3.66 -8.71,-0.2 -17.23,-2.15 -25.76,-3.69 -4.93,-0.9 -10.4,-0.95 -14.76,1.84 -2.36,1.45 -1.58,5.2401 0.64,6.48 5.56,3.65 12.36,4.33 18.49,6.63 8.39,3.15 18.11,0.76 25.78,6.1 3.67,1.53 3.5,5.92 3,9.22 -1.4,1.2599 -3.11,2.1 -4.7,3.09 2.78,2.46 6.3199,5.4 5.12,9.62 -4.41,3.89 -10.34,6.87 -16.35,6.63 -5.48,-0.59 -10.98,-0.33 -16.47,-0.43 -3.44,-0.02 -6.94,-0.63 -10.32,0.25 -2.77,0.48 -3.63,3.6 -5.01,5.64 2.69,2.21 5.35,4.46 8.08,6.63 4.1,3.28 9.37,4.38 14.27,5.9 4.58,1.27 9.05,2.91 13.64,4.12 3.21,0.89 6.63,0.39 9.84,1.26 3.35,1.44 3.95,5.76 3.3,8.95 -1.93,1.6 -4.23,2.64 -6.4,3.84 -7.86,4.43 -17.2599,3.24 -25.77,5.3 -6.43,1.56 -13.05,1.91 -19.62,2.37 -9.53,1.36 -19.38,1.06 -28.62,4.04 -0.8,4.65 -0.64,10.08 -4.09,13.74 -7.69,4.97 -17.35,5.06 -25.97,2.91 -5.68,-1.69 -10.54,-5.25 -15.34,-8.6 -6.52,-4.62 -11.5,-11.43 -13.61,-19.16 0.59,-5.96 3.74,-11.21 5.99,-16.65 4.84,-10.72 7.68,-22.17 11.71,-33.2 2.02,-7.85 6.27,-14.86 8.34,-22.6801 1.8,-6.72 5.07,-12.8799 7.65,-19.31 2.26,-5.6899 6.54,-10.1899 9.74,-15.3399 z"
     inkscape:connector-curvature="0"
     style="fill:#f2c5b2;stroke:#f2c5b2;stroke-width:0.30000001" />
  <path
     id="path9411"
     d="m 1330.7617,625 c 3.38,-0.88 6.88,-0.27 10.32,-0.25 5.49,0.1 10.99,-0.16 16.47,0.43 -8.87,1.39 -17.95,1.33 -26.79,-0.18 z"
     inkscape:connector-curvature="0"
     style="fill:#151b1d;stroke:#151b1d;stroke-width:0.30000001" />
  <path
     id="path9413"
     d="m 1495.4917,664.33 c 4.17,-2.98 8.74,-5.42 12.58,-8.84 3.14,2.43 4.25,6.32 5.74,9.82 2.98,6.96 5.14,14.22 7.55,21.4 0.41,1.74 1.49,3.95 0.06,5.52 -4.73,5.78 -11.16,9.89 -17.73,13.3 -5,2.6299 -9.64,5.93 -14.86,8.15 -4.42,1.81 -9.31,1.77 -13.83,3.23 -3.43,0.92 -6.84,2.4 -10.42,2.36 -5.83,-2.74 -8.02,-9.04 -9.94,-14.7 -2.58,-7.18 -3.96,-14.74 -6.77,-21.83 3.61,-0.74 7.07,-2.09 10.47,-3.51 5.98,-2.56 12.52,-3.28 18.64,-5.43 6.56,-2.31 12.82,-5.46 18.51,-9.47 z"
     inkscape:connector-curvature="0"
     style="fill:#ffffff;stroke:#ffffff;stroke-width:0.30000001" />
  <path
     id="path9415"
     d="m 1235.4617,661.94 c 2.11,7.73 7.09,14.54 13.61,19.16 4.8,3.35 9.66,6.91 15.34,8.6 8.62,2.15 18.28,2.06 25.97,-2.91 0.24,1.57 0.49,3.18 0.24,4.78 -1.49,8.66 -2.25,17.44 -3.99,26.05 -0.26,2.12 -2.61,2.73 -4.11,3.81 -3.97,1.97 -7.75,4.92 -12.36,4.98 -6.4301,0.09 -13.21,0.61 -19.18,-2.2599 -5.75,-2.7 -11.6,-5.42 -16.63,-9.36 -3.97,-3.06 -6.75,-7.28 -10.03,-10.99 -3.22,-3.64 -4.97,-8.79 -3.93,-13.6 1.31,-4.05 3.56,-7.71 5.33,-11.56 2.95,-5.7201 5.13,-12.0401 9.74,-16.7001 z"
     inkscape:connector-curvature="0"
     style="fill:#ffffff;stroke:#ffffff;stroke-width:0.30000001" />
  <path
     id="path9417"
     d="m 1521.2817,919.87 c 0.67,5.02 0.79,10.12 1.92,15.09 0.16,2.36 1.66,5.57 -0.85,7.19 -5.6899,4.46 -11.17,9.49 -18.06,12.05 -7.85,2.91 -15.55,6.35 -23.72,8.33 -14.21,3.59 -28.91,4.36 -43.35,6.67 -12.22,1.02 -24.4301,2.23 -36.64,3.33 -27.06,3.03 -54.47,1.08 -81.21,-3.7401 -17.12,-2.37 -34.01,-5.98 -50.97,-9.24 -5.09,-0.95 -10.07,-2.34 -15.1,-3.49 -9.31,-2.15 -17.65,-6.96 -26.17,-11.09 -1.69,-0.9 -3.49,-1.7599 -4.75,-3.24 -0.68,-5.33 0.05,-10.8 1.39,-15.97 0.32,-1.82 2.12,-2.62 3.39,-3.7 9.7,7.13 21.61,9.91 32.65,14.25 6.99,2.87 14.58,3.67 21.64,6.3 9.08,2.83 18.63,3.59 27.98,5.1 14.23,1.63 28.39,3.95 42.66,5.16 32.62,1.9 65.28,-1.37 97.46,-6.53 21.7,-4.23 43.43,-10.1801 62.72,-21.27 2.79,-1.64 5.96,-2.4 9.15,-2.87 -0.04,-0.5799 -0.1,-1.7499 -0.14,-2.3299 z"
     inkscape:connector-curvature="0"
     style="fill:#f29c9f;stroke:#f29c9f;stroke-width:0.30000001" />
  <path
     sodipodi:nodetypes="cccccccccccccccccccccccccccccccccccccccccccccc"
     style="fill:#706449;fill-opacity:1;stroke:#2f2f2f;stroke-width:0.30000001"
     inkscape:connector-curvature="0"
     d="m 1336.9817,40.74 c 10.23,-2.38 20.76,-2.63 31.17,-3.65 5.99,-0.39 11.99,-0.17 17.98,-0.24 9.38,-0.28 18.57,1.99 27.76,3.61 9.98,2.12 20.24,3.24 29.8,7 8.1,2.4 16.07,5.32 23.34,9.68 5.42,3.42 11.91,5.9 15.4,11.62 4.46,4.85 9.38,9.28 13.76,14.23 10.71,14.54 19.65,30.33 27.35,46.65 4.73,9.41 8.21,19.39 11.54,29.37 1.25,3.95 3.27,7.74 3.47,11.95 0.14,4.42 2.13,8.47 2.93,12.78 3.41,12.11 4.7,24.69 5.39,37.21 0.3,7.39 -0.85,14.74 -0.89,22.13 -1.74,15.05 -2.75,30.58 -9.05,44.57 -1.71,2.41 -3.89,4.46 -5.77,6.73 0.03,-6.89 0.48,-13.97 -1.84,-20.59 -1.49,-6.18 -3.17,-13.58 -9.69,-16.32 -4.01,-0.66 -8.04,1.37 -10.48,4.5 -6.08,8.05 -13.76,14.93 -22.43,20.09 -0.72,-3.33 -0.66,-6.74 -0.42,-10.11 0.51,-8.83 -0.48,-17.63 -1.53,-26.38 -7.07,-0.12 -14.25,0.01 -21.12,-1.93 -18.35,-4.08 -37.38,-7.46 -53.62,-17.51 -85.5414,149.72399 -53.8225,51.02082 -43.8858,53.38964 -149.0365,109.77847 -47.4267,4.28051 -72.9643,-61.62964 -7.13,-5.82 -12.9,-13.05 -19.18,-19.72 -4.26,-3.85 -7.09,-8.92 -10.88,-13.19 -1.89,8.21 -1.11,16.67 -1.25,25.01 0.29,11.85 1.51,23.7 4.06,35.28 1.63,10.2 4.33,20.23 8.42,29.73 -9.23,0.36 -18.97,-1.06 -26.59,-6.64 -4.21,-3.24 -9.49,-4.89 -13.21,-8.77 -2.55,-2.54 -5.41,-5.66 -9.41,-5.1 -3.98,-0.47 -6.59,3.14 -8.5,6.07 -4.51,8.18 -6.97,17.48 -7,26.83 -4.12,-3.27 -6.92,-7.76 -9.85,-12.04 -2.75,-4.28 -3.65,-9.39 -4.43,-14.33 -2.62,-19.92 -1.45,-40.22 1.87,-59.99 2.32,-10.58 4.89,-21.15 8.7,-31.3 4.08,-11.87 9.68,-23.13 14.11,-34.86 9.75,-22.1 22.37,-43.27 39.53,-60.43 3.62,-3.77 8.06,-6.6 11.89,-10.14 6.04,-5.83 13.86,-9.28 21.55,-12.37 9.6,-3 18.89,-7.36 29.03,-8.28 4.9801,-0.93 9.9401,-2.02 14.9401,-2.91 z"
     id="path9419" />
  <path
     sodipodi:nodetypes="ccccccccccccccccccccccccccccccccccccccccccccccc"
     style="fill:#f1d4c8;fill-opacity:1;stroke:#f2c5b2;stroke-width:0.30000001"
     inkscape:connector-curvature="0"
     d="m 1263.1217,184.98 c 3.79,4.27 6.62,9.34 10.88,13.19 6.28,6.67 12.05,13.9 19.18,19.72 12.86,12.04 26.7419,-54.15256 42.9919,-47.26256 16.1801,5.11 1.8485,34.31292 18.8686,34.10292 5.47,-0.22 12.5561,15.78765 17.9662,16.37765 9.38,0.97 49.0934,34.70199 58.4434,34.33199 -0.38,-1.4 -90.3821,25.32721 -92.0221,24.70721 -3.4837,-17.40132 58.4005,-62.10488 56.975,-72.9777 6.27,6.08 23.789,5.46952 30.989,10.27952 26.6572,-14.25673 17.9081,22.11097 36.2581,26.19097 6.87,1.94 14.05,1.81 21.12,1.93 1.05,8.75 2.04,17.55 1.53,26.38 -0.24,3.37 -0.3,6.78 0.42,10.11 8.67,-5.16 16.35,-12.04 22.43,-20.09 2.44,-3.13 6.47,-5.16 10.48,-4.5 6.52,2.74 8.2,10.14 9.69,16.32 2.32,6.62 1.87,13.7 1.84,20.59 -0.29,2.82 -1.69,5.36 -2.52,8.03 -1.22,3.16 -1.73,6.63 -3.52,9.54 -2.36,2.97 -5.58,5.09 -8.53,7.42 -5.35,3.78 -10.4,8.34 -16.79,10.28 -4.57,1.56 -9.98,1.75 -13.4,5.61 -9.19,9.58 -19.59,17.9 -30.29,25.71 -15.47,9.12 -30.12,19.86 -47.01,26.3 1.04,7.6 3.34,14.93 6.42,21.95 -6.52,6 -14.01,10.78 -20.92,16.29 -6.45,5.15 -13.53,9.51 -19.58,15.15 -0.93,0.03 -1.84,0.06 -2.75,0.06 -13.53,-4.28 -24.87,-13.28 -35.77,-22.07 -3.31,-2.48 -6.58,-5.09 -8.98,-8.49 3.09,-7.24 4.52,-15.14 4.66,-22.99 -11.17,-6.39 -22.57,-12.38 -34.06,-18.2 -4.73,-2.46 -9.45,-4.98 -13.71,-8.2 -9.69,-7.18 -20.47,-13.41 -27.72,-23.32 -2.77,-3.79 -1.82,-10.06 -6.59,-12.31 -8.14,-4.05 -17.36,-5.91 -24.84,-11.27 -4.94,-3.65 -10.11,-7.46 -13.03,-13.02 -2.36,-4.05 -2.59,-8.89 -2.59,-13.46 0.03,-9.35 2.49,-18.65 7,-26.83 1.91,-2.93 4.52,-6.54 8.5,-6.07 4,-0.56 6.86,2.56 9.41,5.1 3.72,3.88 9,5.53 13.21,8.77 7.62,5.58 5.2066,3.52761 14.4366,3.16761 -4.09,-9.5 -12.8666,-32.55146 -14.4966,-42.75146 -2.55,-11.58 14.46,-6.93615 14.17,-18.78615 0.1399,-8.34 -0.6401,-16.8 1.2499,-25.01 z"
     id="path9421" />
  <path
     style="fill:#ffffff;stroke:#ffffff;stroke-width:0.30000001"
     inkscape:connector-curvature="0"
     d="m 1415.5217,409.22 c 1.63,-1.96 4.35,-1.1 5.82,0.58 8.45,8.37 16.88,16.78 25.41,25.07 -2.22,8.37 -7.22,15.56 -12.18,22.52 -5.26,6.85 -10.43,13.87 -17.11,19.44 -10.11,-4.18 -18.65,-11.2 -26.9,-18.22 -6.11,-5.14 -10.11,-12.18 -15.54,-17.95 6.05,-5.64 13.13,-10 19.58,-15.15 6.91,-5.51 14.4,-10.29 20.92,-16.29 z"
     id="path9423" />
  <path
     style="fill:#ffffff;stroke:#ffffff;stroke-width:0.30000001"
     inkscape:connector-curvature="0"
     d="m 1322.8217,411.7 c 1.27,-1.22 3.03,-1.38 4.7,-1.54 2.4,3.4 5.67,6.01 8.98,8.49 10.9,8.79 22.24,17.79 35.77,22.07 -2.92,6.48 -7.83,11.7 -12.42,17.02 -7.42,8.63 -17.48,15.44 -28.7,17.82 -8.03,-8.58 -16.27,-17.13 -22.39,-27.22 -3.08,-4.93 -6.47,-9.77 -8.23,-15.36 1.95,-3.46 5.25,-5.82 8.08,-8.5 4.8,-4.18 9.3,-8.72 14.21,-12.78 z"
     id="path9425" />
  <path
     style="fill:#d59cf2;fill-opacity:1;stroke:#f29c9f;stroke-width:0.30000001"
     inkscape:connector-curvature="0"
     d="m 1284.0017,436.71 c 5.17,-2.44 10.86,-3.4 16.53,-3.73 1.7599,5.59 5.15,10.43 8.23,15.36 6.12,10.09 14.36,18.64 22.39,27.22 10.31,10.92 24.35,16.8 36.95,24.52 2.95,1.67 5.75,3.82 9.09,4.66 2.75,-0.08 5.03,-1.94 7.31,-3.28 11.41,-7.6 23.41,-14.65 32.96,-24.63 6.68,-5.57 11.85,-12.59 17.11,-19.44 4.96,-6.96 9.96,-14.15 12.18,-22.52 5.54,0.49 10.85,2.31 16.38,2.96 -2.85,10.75 -7.34,21.19 -14.16,30.04 -7.76,10.1 -16.35,19.63 -26.08,27.88 -7.28,6.19 -15.97,10.32 -24.45,14.58 -4.1,2 -8.28,3.84 -12.57,5.41 -4.7,1.79 -9.81,1.42 -14.74,1.49 -2.93,-0.05 -5.9,0.11 -8.77,-0.53 -2.51,-0.87 -4.39,-2.86 -6.47,-4.42 -4.5,-3.74 -10.06,-5.83 -14.81,-9.19 -7.2,-5.05 -14.78,-9.77 -20.69,-16.37 -5.21,-5.78 -10.33,-11.63 -15.57,-17.37 -8.84,-9.56 -14.17,-21.59 -20.82,-32.64 z"
     id="path9427" />
  <path
     style="fill:#8f63a0;fill-opacity:1;stroke:#d96c72;stroke-width:0.30000001"
     inkscape:connector-curvature="0"
     d="m 1261.2617,444.08 c 7.3,-3.19 14.76,-6.42 22.74,-7.37 6.65,11.05 11.98,23.08 20.82,32.64 5.24,5.74 10.36,11.59 15.57,17.37 5.91,6.6 13.49,11.32 20.69,16.37 4.75,3.36 10.31,5.45 14.81,9.19 2.08,1.56 3.96,3.55 6.47,4.42 2.87,0.64 5.84,0.48 8.77,0.53 4.93,-0.07 10.04,0.3 14.74,-1.49 4.29,-1.57 8.47,-3.41 12.57,-5.41 8.48,-4.26 17.17,-8.39 24.45,-14.58 9.73,-8.25 18.32,-17.78 26.08,-27.88 6.8199,-8.85 11.31,-19.29 14.16,-30.04 4.3,0.3 8.4,1.65 12.58,2.63 6.68,1.45 13.31,3.4 19.49,6.36 8.35,4.64 16.32,10.25 22.51,17.61 8.72,10.49 15.23,22.57 21.24,34.76 11.46,19.63 17.46,41.71 24.89,63.02 2.89,10.52 5.05,21.24 8.34,31.66 2.33,10.63 4.65,21.3 5.9,32.12 1.08,11.04 4.32,21.85 4.07,33.02 -0.14,6.21 0.38,12.58 -1.37,18.62 -2.09,7.01 -1.71,14.59 -4.64,21.37 -2.91,7.91 -7.36,15.09 -11.88,22.15 -2.12,3.03 -1.36,7.24 -3.93,10.0099 -4.69,5.63 -9.12,11.67 -15.29,15.78 -4.6299,3.31 -9.73,5.99 -15.09,7.87 -4.39,1.56 -9.09,1.21 -13.65,1.21 0.11,9.32 -0.03,18.65 0.62,27.96 0.02,17.32 2.1,34.55 4.55,51.67 5.17,13.67 14.62,25.71 17.11,40.37 0.06,3.78 -2.64,6.83 -4.67,9.79 -3.57,4.5 -6.7,9.3 -10.03,13.97 -4.71,5.62 -2.5,13.41 -2.6,20.09 0.04,0.58 0.1,1.75 0.14,2.33 -3.19,0.47 -6.36,1.23 -9.15,2.87 -19.29,11.09 -41.02,17.04 -62.72,21.27 -32.18,5.16 -64.84,8.43 -97.46,6.53 -14.27,-1.21 -28.43,-3.53 -42.66,-5.16 -9.35,-1.51 -18.9,-2.27 -27.98,-5.1 -7.06,-2.63 -14.65,-3.43 -21.64,-6.3 -11.04,-4.34 -22.95,-7.12 -32.65,-14.25 -0.13,-5.71 -4.26,-10.24 -4.29,-15.91 -5.24,-4.81 -9.43,-10.59 -13.3,-16.52 -2.52,-3.44 -1.2,-7.87 -0.61,-11.7 2.23,-10.41 5.2,-20.65 8.27,-30.84 1.36,-4.88 6.23,-7.96 6.86,-13.1201 1.54,-7.96 3.29,-15.9399 3.58,-24.0699 0.31,-14.31 -0.15,-28.6 -0.39,-42.9 -0.1,-5.72 -2.3,-11.29 -1.48,-17.04 -4.61,-2.45 -9.37,-4.82 -13.12,-8.55 -9.06,-8.31 -17.67,-17.3199 -24.03,-27.9 -7.22,-17.27 -12.64,-35.66 -12.63,-54.53 0.12,-17.54 -0.96,-35.32 2.56,-52.61 2.09,-6.61 1.21,-13.63 2.27,-20.41 2.48,-20.4 3.82,-41.06 9.23,-60.97 1.77,-9.99 6.58,-19.01 10.97,-28.03 4.91,-8.77 10.94,-16.92 17.71,-24.34 4.61,-4.39 8.9,-9.24 14.38,-12.58 9.1,-5.7599 18.16,-11.7399 28.12,-15.9599 m 62.52,74.6 -1.04,-0.04 c -0.81,9.37 -0.05,18.79 -0.37,28.19 -7.63,-1.74 -15.51,-1.53 -23.28,-1.76 -7.52,0.35 -16.33,2.55 -20.2,9.69 -3.2,5.15 -7.48,9.65 -9.74,15.34 -2.58,6.4301 -5.85,12.59 -7.65,19.31 -2.07,7.82 -6.32,14.83 -8.34,22.6801 -4.03,11.03 -6.87,22.48 -11.71,33.2 -2.25,5.44 -5.4,10.69 -5.99,16.65 -4.61,4.66 -6.79,10.98 -9.74,16.7 -1.77,3.85 -4.02,7.51 -5.33,11.56 -1.04,4.81 0.71,9.96 3.93,13.6 3.28,3.71 6.06,7.93 10.03,10.99 5.03,3.94 10.88,6.66 16.63,9.36 5.97,2.87 12.75,2.35 19.18,2.2599 4.61,-0.06 8.39,-3.0099 12.36,-4.98 1.5,-1.08 3.85,-1.69 4.11,-3.81 1.74,-8.61 2.5,-17.39 3.99,-26.05 0.25,-1.6 0,-3.21 -0.24,-4.78 3.45,-3.66 3.29,-9.09 4.09,-13.74 9.24,-2.98 19.09,-2.68 28.62,-4.04 0.27,3.01 -1.13,7.16 2.0099,9.08 5.6201,3.67 12.71,2.0099 19.01,2.05 26.68,-0.09 53.37,-0.04 80.05,-0.02 2.1,-0.03 4.1899,-0.35 6.27,-0.72 4.77,4.21 11.5,4.0699 17.44,3.34 2.81,7.09 4.19,14.65 6.77,21.83 1.92,5.66 4.11,11.96 9.94,14.7 3.58,0.04 6.99,-1.44 10.42,-2.36 4.52,-1.46 9.41,-1.42 13.83,-3.23 5.22,-2.22 9.86,-5.52 14.86,-8.15 6.57,-3.41 13,-7.52 17.73,-13.3 1.43,-1.57 0.35,-3.78 -0.06,-5.52 -2.41,-7.18 -4.57,-14.44 -7.55,-21.4 -1.49,-3.5 -2.6,-7.39 -5.74,-9.82 5.61,-5.02 2.91,-13.04 1.93,-19.4 -4.89,-23.97 -8.77,-48.38 -17.78,-71.2401 -2.4,-4.43 -4.64,-9.2 -8.47,-12.58 -5.04,-2.01 -8.51,2.84 -11.64,5.9 -2.27,-5.02 -3.84,-10.31 -5.68,-15.48 -1.27,-3.15 -2.75,-6.51 -5.57,-8.56 -3.72,-1.28 -7.57,0.11 -10.83,1.93 -1.59,-3.45 -2.71,-7.78 -6.44,-9.54 -4.48,-1.21 -8.29,2.05 -11.55,4.62 -0.5099,-4.17 1.57,-10.09 -2.55,-12.88 -5.06,-1.08 -10.24,-0.56 -15.36,-0.64 -26.34,-0.03 -52.67,0 -79,-0.01 -3.7899,0.1301 -7.8099,-0.6599 -11.3499,1.0701 z"
     id="path9429" />
  <path
     style="fill:#182727;stroke:#182727;stroke-width:0.30000001"
     inkscape:connector-curvature="0"
     d="m 1323.7817,518.68 c 3.54,-1.73 7.56,-0.94 11.35,-1.07 26.33,0.01 52.66,-0.02 79,0.01 5.12,0.08 10.3,-0.44 15.36,0.64 -8.41,1.15 -16.9,0.54 -25.36,0.65 -26.78,0.02 -53.58,0.26 -80.35,-0.23 z"
     id="path9433" />
  <path
     sodipodi:nodetypes="cccccccccccccccccccccccccccccccccccc"
     style="fill:#4e4644;fill-opacity:1;stroke:#303030;stroke-width:1.43244088;stroke-miterlimit:4;stroke-dasharray:none"
     inkscape:connector-curvature="0"
     d="m 1428.6221,498.26 c 4.12,2.79 3.0301,1.28426 3.2926,12.13743 -1.5362,32.31239 9.0138,75.34123 9.0981,111.10752 -0.03,3.47 -10.4311,7.40505 -9.9111,10.82505 0.07,12.23 0.01,24.45 0.03,36.68 0.04,3.47 -0.23,6.94 -0.7,10.39 -2.08,0.37 -4.17,0.69 -6.27,0.72 -26.6801,-0.02 -53.3701,-0.07 -80.05,0.02 -6.3,-0.04 -13.39,1.62 -19.01,-2.05 -3.14,-1.92 -1.74,-6.07 -2.0099,-9.08 6.57,-0.46 13.19,-8.63609 19.62,-10.19609 8.51,-2.06 17.0404,-0.87 24.9004,-5.3 2.17,-1.2 5.3396,-7.45749 7.2696,-9.05739 -3.3228,0.93675 -4.5,4.15002 -13.14,2.83348 -4.59,-1.21 -9.06,-2.85 -13.64,-4.12 -4.9,-1.52 -10.17,-2.62 -14.27,-5.9 -2.73,-2.17 -5.39,-4.42 -8.08,-6.63 1.38,-2.04 2.24,-5.16 5.01,-5.64 9.2757,-5.24304 17.4843,-5.61872 26.79,0.18 6.01,0.24 11.94,-2.74 16.35,-6.63 1.2,-4.22 -2.34,-7.16 -5.12,-9.62 1.59,-0.99 3.3,-1.83 4.7,-3.09 0.5,-3.3 0.67,-7.69 -3,-9.22 -7.67,-5.34 -17.39,-2.95 -25.78,-6.1 -6.13,-2.3 -12.93,-2.98 -18.49,-6.63 -2.22,-1.24 -3,-5.03 -0.64,-6.48 4.36,-2.79 11.5691,-14.91391 16.4991,-14.01391 8.53,1.54 13.5718,3.49 22.2818,3.69 4.72,0.59 11.8991,-4.45783 15.3491,-8.00783 1.5,-2.9 0.6704,-4.96087 -0.2796,-8.01087 -7.41,-8.84 -18.0204,1.35261 -29.2904,0.0626 -9.35,-0.73 -18.58,-2.51 -27.76,-4.3 0.32,-9.4 -1.3096,-35.8497 -0.4996,-45.2197 0.3256,-1.39633 1.7047,-2.44149 4.0103,-3.17782 26.77,0.49 50.5996,0.49752 77.3797,0.47752 8.9406,-0.11538 14.1218,-0.0235 25.3599,-0.64999 z"
     id="path9435" />
  <path
     style="fill:#f1d4c8;fill-opacity:1;stroke:#f2c5b2;stroke-width:0.30000001"
     inkscape:connector-curvature="0"
     d="m 1432.0417,531.14 c 3.26,-2.57 7.07,-5.83 11.55,-4.62 3.73,1.76 4.85,6.09 6.44,9.54 3.2599,-1.82 7.11,-3.21 10.83,-1.93 2.82,2.05 4.3,5.41 5.57,8.56 1.84,5.17 3.41,10.46 5.68,15.48 3.13,-3.06 6.6,-7.91 11.64,-5.9 3.83,3.38 6.07,8.15 8.47,12.58 9.0099,22.86 12.89,47.27 17.78,71.2401 0.98,6.36 3.68,14.3799 -1.93,19.4 -3.84,3.42 -8.41,5.86 -12.58,8.84 -5.69,4.01 -11.95,7.16 -18.51,9.47 -6.12,2.15 -12.66,2.87 -18.64,5.43 -3.4,1.42 -6.86,2.77 -10.47,3.51 -5.94,0.73 -12.67,0.87 -17.44,-3.34 0.47,-3.45 0.74,-6.92 0.7,-10.39 -0.02,-12.23 0.04,-24.45 -0.03,-36.68 0.4301,-14.44 0.04,-28.9 0.21,-43.34 0.67,-16.56 -0.07,-33.14 0.43,-49.7 0.17,-2.7201 0.26,-5.4401 0.3,-8.1501 z"
     id="path9437" />
  <path
     sodipodi:nodetypes="cccccccccccccccccccccccccccccccccccc"
     style="fill:#f1d4c8;fill-opacity:1;stroke:#f2c5b2;stroke-width:0.30000001"
     inkscape:connector-curvature="0"
     d="m 1278.8917,554.76 c 3.87,-7.14 12.68,-9.34 20.2,-9.69 7.77,0.23 15.65,0.02 23.28,1.76 9.18,1.79 18.41,-10.34304 27.76,-9.61304 11.27,1.29 22.75,5.88 30.16,14.72 0.95,3.05 0.91,6.85 -0.59,9.75 -3.45,3.55 -8.89,4.25 -13.61,3.66 -8.71,-0.2 -17.23,-2.15 -25.76,-3.69 -4.93,-0.9 -10.4,12.96304 -14.76,15.75304 -2.36,1.45 -1.58,5.2401 0.64,6.48 5.56,3.65 12.36,4.33 18.49,6.63 8.39,3.15 18.11,0.76 25.78,6.1 3.67,1.53 3.5,5.92 3,9.22 -1.4,1.2599 -3.11,2.1 -4.7,3.09 2.78,2.46 6.3199,5.4 5.12,9.62 -4.41,3.89 -10.34,6.87 -16.35,6.63 -5.48,-0.59 -10.98,-0.33 -16.47,-0.43 -3.44,-0.02 -6.94,-0.63 -10.32,0.25 -2.77,0.48 -3.63,3.6 -5.01,5.64 2.69,2.21 5.35,4.46 8.08,6.63 4.1,3.28 12.8483,-1.70696 17.7483,-0.18696 4.58,1.27 7.3108,2.04044 11.9008,3.25044 3.21,0.89 10.1083,-3.95783 12.4487,1.26 1.7785,9.69671 -1.2448,9.77692 -8.3174,13.65956 -7.86,4.43 -16.3903,9.32696 -24.9004,11.38696 -6.43,1.56 -13.05,1.91 -19.62,2.37 -9.53,1.36 -19.38,1.06 -28.62,4.04 -0.8,4.65 -0.64,10.08 -4.09,13.74 -7.69,4.97 -17.35,5.06 -25.97,2.91 -5.68,-1.69 -10.54,-5.25 -15.34,-8.6 -6.52,-4.62 -11.5,-11.43 -13.61,-19.16 0.59,-5.96 3.74,-11.21 5.99,-16.65 4.84,-10.72 7.68,-22.17 11.71,-33.2 2.02,-7.85 6.27,-14.86 8.34,-22.6801 1.8,-6.72 5.07,-12.8799 7.65,-19.31 2.26,-5.6899 6.54,-10.1899 9.74,-15.3399 z"
     id="path9441" />
  <path
     style="fill:#ffffff;stroke:#ffffff;stroke-width:0.30000001"
     inkscape:connector-curvature="0"
     d="m 1495.4917,664.33 c 4.17,-2.98 8.74,-5.42 12.58,-8.84 3.14,2.43 4.25,6.32 5.74,9.82 2.98,6.96 5.14,14.22 7.55,21.4 0.41,1.74 1.49,3.95 0.06,5.52 -4.73,5.78 -11.16,9.89 -17.73,13.3 -5,2.6299 -9.64,5.93 -14.86,8.15 -4.42,1.81 -9.31,1.77 -13.83,3.23 -3.43,0.92 -6.84,2.4 -10.42,2.36 -5.83,-2.74 -8.02,-9.04 -9.94,-14.7 -2.58,-7.18 -3.96,-14.74 -6.77,-21.83 3.61,-0.74 7.07,-2.09 10.47,-3.51 5.98,-2.56 12.52,-3.28 18.64,-5.43 6.56,-2.31 12.82,-5.46 18.51,-9.47 z"
     id="path9445" />
  <path
     style="fill:#ffffff;stroke:#ffffff;stroke-width:0.30000001"
     inkscape:connector-curvature="0"
     d="m 1235.4617,661.94 c 2.11,7.73 7.09,14.54 13.61,19.16 4.8,3.35 9.66,6.91 15.34,8.6 8.62,2.15 18.28,2.06 25.97,-2.91 0.24,1.57 0.49,3.18 0.24,4.78 -1.49,8.66 -2.25,17.44 -3.99,26.05 -0.26,2.12 -2.61,2.73 -4.11,3.81 -3.97,1.97 -7.75,4.92 -12.36,4.98 -6.4301,0.09 -13.21,0.61 -19.18,-2.2599 -5.75,-2.7 -11.6,-5.42 -16.63,-9.36 -3.97,-3.06 -6.75,-7.28 -10.03,-10.99 -3.22,-3.64 -4.97,-8.79 -3.93,-13.6 1.31,-4.05 3.56,-7.71 5.33,-11.56 2.95,-5.7201 5.13,-12.0401 9.74,-16.7001 z"
     id="path9447" />
  <path
     style="fill:#d59cf2;fill-opacity:1;stroke:#f29c9f;stroke-width:0.30000001"
     inkscape:connector-curvature="0"
     d="m 1521.2817,919.87 c 0.67,5.02 0.79,10.12 1.92,15.09 0.16,2.36 1.66,5.57 -0.85,7.19 -5.6899,4.46 -11.17,9.49 -18.06,12.05 -7.85,2.91 -15.55,6.35 -23.72,8.33 -14.21,3.59 -28.91,4.36 -43.35,6.67 -12.22,1.02 -24.4301,2.23 -36.64,3.33 -27.06,3.03 -54.47,1.08 -81.21,-3.7401 -17.12,-2.37 -34.01,-5.98 -50.97,-9.24 -5.09,-0.95 -10.07,-2.34 -15.1,-3.49 -9.31,-2.15 -17.65,-6.96 -26.17,-11.09 -1.69,-0.9 -3.49,-1.7599 -4.75,-3.24 -0.68,-5.33 0.05,-10.8 1.39,-15.97 0.32,-1.82 2.12,-2.62 3.39,-3.7 9.7,7.13 21.61,9.91 32.65,14.25 6.99,2.87 14.58,3.67 21.64,6.3 9.08,2.83 18.63,3.59 27.98,5.1 14.23,1.63 28.39,3.95 42.66,5.16 32.62,1.9 65.28,-1.37 97.46,-6.53 21.7,-4.23 43.43,-10.1801 62.72,-21.27 2.79,-1.64 5.96,-2.4 9.15,-2.87 -0.04,-0.5799 -0.1,-1.7499 -0.14,-2.3299 z"
     id="path9449" />
</g>
</g>
    </g>
  </g>
</svg>
