<?xml version="1.0" encoding="UTF-8" standalone="no"?>
<!-- Created with Inkscape (http://www.inkscape.org/) -->

<svg
   xmlns:dc="http://purl.org/dc/elements/1.1/"
   xmlns:cc="http://creativecommons.org/ns#"
   xmlns:rdf="http://www.w3.org/1999/02/22-rdf-syntax-ns#"
   xmlns:svg="http://www.w3.org/2000/svg"
   xmlns="http://www.w3.org/2000/svg"
   xmlns:sodipodi="http://sodipodi.sourceforge.net/DTD/sodipodi-0.dtd"
   xmlns:inkscape="http://www.inkscape.org/namespaces/inkscape"
   width="199.46117mm"
   height="254.79285mm"
   viewBox="0 0 706.75216 902.8093"
   id="svg2"
   version="1.1"
   inkscape:version="0.91 r13725"
   sodipodi:docname="SilkCottonTree.svg">
  <defs
     id="defs4" />
  <sodipodi:namedview
     id="base"
     pagecolor="#ffffff"
     bordercolor="#666666"
     borderopacity="1.0"
     inkscape:pageopacity="0.0"
     inkscape:pageshadow="2"
     inkscape:zoom="0.74212793"
     inkscape:cx="353.37608"
     inkscape:cy="451.40465"
     inkscape:document-units="px"
     inkscape:current-layer="layer1"
     showgrid="false"
     fit-margin-top="0"
     fit-margin-left="0"
     fit-margin-right="0"
     fit-margin-bottom="0"
     inkscape:window-width="1600"
     inkscape:window-height="837"
     inkscape:window-x="-8"
     inkscape:window-y="-8"
     inkscape:window-maximized="1" />
  <metadata
     id="metadata7">
    <rdf:RDF>
      <cc:Work
         rdf:about="">
        <dc:format>image/svg+xml</dc:format>
        <dc:type
           rdf:resource="http://purl.org/dc/dcmitype/StillImage" />
        <dc:title></dc:title>
      </cc:Work>
    </rdf:RDF>
  </metadata>
  <g
     inkscape:label="Layer 1"
     inkscape:groupmode="layer"
     id="layer1"
     transform="translate(709.55001,206.79399)">
    <g
       transform="translate(-2291.1444,-322.29004)"
       id="g4174">
      <path
         inkscape:connector-curvature="0"
         d="m 1981.4119,995.06704 c 0,0 -10.3492,11.50606 -30.1482,3.02082 -19.799,-8.48528 -21.5061,-551.02337 -21.5061,-551.02337 42.6031,-46.49227 77.7817,-63.10928 77.7817,-63.10928 0,0 25.9559,21.79899 25.9559,21.79899 -98.0869,49.35724 -88.3484,120.8193 -80.3181,241.96887 3.0092,45.39879 2.0889,104.29284 13.6326,159.55319 14.8504,71.08943 44.7964,130.47518 46.7732,175.2058 1.3086,29.27964 -32.171,12.58498 -32.171,12.58498 z"
         style="fill:#64430b;fill-opacity:1;fill-rule:evenodd;stroke:#000000;stroke-width:2.20000005;stroke-linecap:butt;stroke-linejoin:miter;stroke-miterlimit:4;stroke-dasharray:none;stroke-opacity:1"
         id="path8963" />
      <path
         inkscape:connector-curvature="0"
         d="m 1915.311,373.07797 c 0,0 37.75,0 37.75,0 -31.4961,309.72884 -4.1562,494.96705 -4.4627,583.0718 -0.1066,30.64475 17.2371,41.45096 16.0129,42.79952 -38.8841,42.83631 -58.0502,-3.12132 -58.0502,-3.12132 l 8.75,-622.75 z"
         style="fill:#64430b;fill-opacity:1;fill-rule:evenodd;stroke:#000000;stroke-width:2.20000005;stroke-linecap:butt;stroke-linejoin:miter;stroke-miterlimit:4;stroke-dasharray:none;stroke-opacity:1"
         id="path7021" />
      <path
         inkscape:connector-curvature="0"
         d="m 1855.7932,996.13155 c -37.3215,17.67855 -40.4032,-18.49205 -38.6608,-22.05358 78.6843,-160.82732 113.3929,-513.79464 40,-551.96428 0,0 4.4286,-34.57143 4.4286,-34.57143 26.9643,8.39286 52.5938,45.28572 52.5938,45.28572 10.7143,395 0.162,558.8245 -4.8795,564.28571 -38.4026,41.59941 -55.1786,-4.64285 -55.7143,-9.28571"
         style="fill:#996600;fill-opacity:1;fill-rule:evenodd;stroke:#000000;stroke-width:2.20000005;stroke-linecap:butt;stroke-linejoin:miter;stroke-miterlimit:4;stroke-dasharray:none;stroke-opacity:1"
         id="path2170" />
      <path
         inkscape:connector-curvature="0"
         d="m 1853.6123,988.13601 c -7.7857,-33.33928 55.5692,-120.48549 51.6407,-212.53906"
         style="fill:none;fill-rule:evenodd;stroke:#000000;stroke-width:2.20000005;stroke-linecap:butt;stroke-linejoin:miter;stroke-miterlimit:4;stroke-dasharray:none;stroke-opacity:1"
         id="path3143" />
      <path
         inkscape:connector-curvature="0"
         d="m 1957.311,849.07797 c 19.375,54.4375 27.625,101.5625 24.5,145.75"
         style="fill:none;fill-rule:evenodd;stroke:#000000;stroke-width:2.20000005;stroke-linecap:butt;stroke-linejoin:miter;stroke-miterlimit:4;stroke-dasharray:none;stroke-opacity:1"
         id="path10903" />
      <path
         inkscape:connector-curvature="0"
         d="m 2040.561,226.32798 c 14,-14.875 12.75,-14.25 37.5,-16 3.125,-31.5 58.6098,-30.92678 61.2348,8.82322 42.5,-8.875 51.375,18 35.5,43.5 39.625,-10 76.3902,-0.57322 66.2652,47.67678 73,18.625 45.625,69.5 12,82 -3.125,30.25 -34.125,42.74999 -75.5,28.99999 -51.125,37 -80.625,23.50001 -105,-12.99999 -56.625,9.75 -60.75,-3.5 -87.5,-36 -43.5,19.5 -53.75,19.125 -91.5,-4 -2.25,28.875 -12.5,20 -31.5,18.5 1.5,39.25 -13.125,56.37499 -47.5,43.49999 26.125,52.125 -40.375,76.625 -74,31 -30.125,3.625 -31.375,-6 -46.5,-16.5 -11.875,42.75 -59.25,35.5 -69,12.5 -59.25,-9.125 -52.375,-40 -4,-42.5 5.625,-34.75 34.625,-27.37499 54.5,-24.49999 0.875,-19.75 14.375,-15.875 25,-11.5 -6.375,-15.625 -2.625,-23.25 17.5,-29 -27.75,-34.75 -10.875,-48.75 17.5,-61 -16,-34.125 9.375,-32.375 30,-35 -2.5,-35.875 7,-43.25 46.5,-46 -5,-14.375 2.375,-23.5 23.5,-24 -12.875,-37.625 4.375,-45.25 44,-39.5 4.375,-52.250004 119.75,-27.25 110.5,46.5 31.375,3.75 43.625,10.125 50.5,35.5 z"
         style="fill:#009900;fill-opacity:1;fill-rule:evenodd;stroke:#000000;stroke-width:2.20000005;stroke-linecap:butt;stroke-linejoin:miter;stroke-miterlimit:4;stroke-dasharray:none;stroke-opacity:1"
         id="path11881" />
      <path
         inkscape:connector-curvature="0"
         d="m 1812.2233,207.79417 c 8.7159,3.80498 19.5986,-1.41866 22.1154,22.3059 17.4688,-29.9375 38.6705,-12.09375 37.7955,21.375"
         style="fill:none;fill-rule:evenodd;stroke:#000000;stroke-width:2.20000005;stroke-linecap:butt;stroke-linejoin:miter;stroke-miterlimit:4;stroke-dasharray:none;stroke-opacity:1"
         id="path12852" />
      <path
         inkscape:connector-curvature="0"
         d="m 1990.061,190.57798 c -9.3125,11.875 -39.6875,12.9375 -37.25,47.5 -10.9375,-15.8125 -30.375,-20.8125 -40.5,-4.75"
         style="fill:none;fill-rule:evenodd;stroke:#000000;stroke-width:2.20000005;stroke-linecap:butt;stroke-linejoin:miter;stroke-miterlimit:4;stroke-dasharray:none;stroke-opacity:1"
         id="path12854" />
      <path
         inkscape:connector-curvature="0"
         d="m 2040.811,226.07798 c 1,9 -2,35.1875 -11,47.25"
         style="fill:none;fill-rule:evenodd;stroke:#000000;stroke-width:2.20000005;stroke-linecap:butt;stroke-linejoin:miter;stroke-miterlimit:4;stroke-dasharray:none;stroke-opacity:1"
         id="path12856" />
      <path
         inkscape:connector-curvature="0"
         d="m 2174.7902,262.81975 c 0.872,1.31954 -30.8542,-0.61677 -45.2292,11.00823"
         style="fill:none;fill-rule:evenodd;stroke:#000000;stroke-width:2.20000005;stroke-linecap:butt;stroke-linejoin:miter;stroke-miterlimit:4;stroke-dasharray:none;stroke-opacity:1"
         id="path12858" />
      <path
         inkscape:connector-curvature="0"
         d="m 2252.811,392.32797 c -8.3125,-5.25 -25,-16.25 -37.25,1 0.5,-8.75 0.3125,-31.375 -24.25,-32.5"
         style="fill:none;fill-rule:evenodd;stroke:#000000;stroke-width:2.20000005;stroke-linecap:butt;stroke-linejoin:miter;stroke-miterlimit:4;stroke-dasharray:none;stroke-opacity:1"
         id="path12860" />
      <path
         inkscape:connector-curvature="0"
         d="m 2177.561,421.32797 c 1.75,-21.6875 -3.75,-28.8125 -7,-33.75"
         style="fill:none;fill-rule:evenodd;stroke:#000000;stroke-width:2.20000005;stroke-linecap:butt;stroke-linejoin:miter;stroke-miterlimit:4;stroke-dasharray:none;stroke-opacity:1"
         id="path12862" />
      <path
         inkscape:connector-curvature="0"
         d="m 2108.311,390.32797 c -18.4375,-10.9375 -34.0625,6.6875 -35.75,18.25"
         style="fill:none;fill-rule:evenodd;stroke:#000000;stroke-width:2.20000005;stroke-linecap:butt;stroke-linejoin:miter;stroke-miterlimit:4;stroke-dasharray:none;stroke-opacity:1"
         id="path12864" />
      <path
         inkscape:connector-curvature="0"
         d="m 1984.561,372.07797 c -0.4375,-8.25 -8.0625,-26.25 7.25,-33"
         style="fill:none;fill-rule:evenodd;stroke:#000000;stroke-width:2.20000005;stroke-linecap:butt;stroke-linejoin:miter;stroke-miterlimit:4;stroke-dasharray:none;stroke-opacity:1"
         id="path12866" />
      <path
         inkscape:connector-curvature="0"
         d="m 1740.311,461.57797 c 3.8385,-19.95468 17.831,-19.88411 16.6343,-31.93633 -1.7405,-17.52708 -22.0621,-32.46922 -46.1343,-9.06367"
         style="fill:none;fill-rule:evenodd;stroke:#000000;stroke-width:2.20000005;stroke-linecap:butt;stroke-linejoin:miter;stroke-miterlimit:4;stroke-dasharray:none;stroke-opacity:1"
         id="path12868" />
      <path
         inkscape:connector-curvature="0"
         d="m 1756.936,429.57797 c 12,-3.59375 24.625,-2.15625 30.5,5.625"
         style="fill:none;fill-rule:evenodd;stroke:#000000;stroke-width:2.20000005;stroke-linecap:butt;stroke-linejoin:miter;stroke-miterlimit:4;stroke-dasharray:none;stroke-opacity:1"
         id="path12870" />
      <path
         inkscape:connector-curvature="0"
         d="m 1719.2446,349.56602 c 9.4844,-7.79687 29.9375,-6.13258 43.25,0.86742"
         style="fill:none;fill-rule:evenodd;stroke:#000000;stroke-width:2.20000005;stroke-linecap:butt;stroke-linejoin:miter;stroke-miterlimit:4;stroke-dasharray:none;stroke-opacity:1"
         id="path12872" />
      <path
         inkscape:connector-curvature="0"
         d="m 1761.811,299.82798 c 12.8125,-1.1875 30.9375,-4.50001 38.25,15.24999 23.3125,-38 41,-31.93749 45,-23.24999"
         style="fill:none;fill-rule:evenodd;stroke:#000000;stroke-width:2.20000005;stroke-linecap:butt;stroke-linejoin:miter;stroke-miterlimit:4;stroke-dasharray:none;stroke-opacity:1"
         id="path12874" />
      <path
         inkscape:connector-curvature="0"
         d="m 1886.311,286.82798 c 18.3125,-5.9375 47.1875,11.18749 65.25,39.74999 8.0625,-22.9375 20.25,-19.75 33.5,-20"
         style="fill:none;fill-rule:evenodd;stroke:#000000;stroke-width:2.20000005;stroke-linecap:butt;stroke-linejoin:miter;stroke-miterlimit:4;stroke-dasharray:none;stroke-opacity:1"
         id="path12876" />
      <path
         inkscape:connector-curvature="0"
         d="m 2067.311,327.32797 c 27.4375,-13.125 45.875,12.25 53.75,22.5 12.125,-16 23.8125,-15.625 36.75,-15.5"
         style="fill:none;fill-rule:evenodd;stroke:#000000;stroke-width:2.20000005;stroke-linecap:butt;stroke-linejoin:miter;stroke-miterlimit:4;stroke-dasharray:none;stroke-opacity:1"
         id="path12878" />
      <path
         inkscape:connector-curvature="0"
         d="m 1807.2461,377.59125 c 8.0434,-8.66206 21.5668,-11.66726 32.1734,-4.94975 -1.4142,-20.5061 12.1976,-28.46104 20.5061,-24.74873"
         style="fill:none;fill-rule:evenodd;stroke:#000000;stroke-width:2.20000005;stroke-linecap:butt;stroke-linejoin:miter;stroke-miterlimit:4;stroke-dasharray:none;stroke-opacity:1"
         id="path15787" />
    </g>
  </g>
</svg>
